<svg width="126" height="25" viewBox="0 0 126 25" fill="none" xmlns="http://www.w3.org/2000/svg">
<g id="_2335873801232">
<path id="Vector" fill-rule="evenodd" clip-rule="evenodd" d="M7.39394 1.48336C5.4701 1.45641 1.90731 1.05795 1.09985 2.73734C0.683134 3.60543 0.805359 5.04326 1.29233 5.8026C1.88902 6.73324 2.51842 6.65433 3.4712 7.27893L0.85251 7.28565V13.291C2.80907 13.2362 6.27949 13.8242 7.16201 11.9879C7.58547 11.1083 7.43917 9.8543 6.9801 9.07957C6.50564 8.28078 5.90895 7.98339 4.93693 7.50797L7.38623 7.49258L7.39298 1.48239L7.39394 1.48336Z" fill="#FDFFFD"/>
<path id="Vector_2" fill-rule="evenodd" clip-rule="evenodd" d="M100.821 11.499C101.001 9.26914 99.9489 4.84883 102.577 4.6602C104.912 4.49275 104.062 7.7062 104.19 11.4932L106.42 11.4961C106.555 9.83022 106.714 5.10967 105.988 3.88838C105.49 3.05109 104.618 2.62474 103.198 2.72772C101.617 2.84225 101.522 3.38407 100.631 4.11068L100.472 3.95574C100.108 3.56116 100.031 3.31959 99.484 3.03279C98.9932 2.77583 98.385 2.69403 97.7556 2.72098C97.157 2.74696 96.6873 2.8509 96.1676 3.17619L95.0031 4.09818L94.7827 2.90768L92.9734 2.91153L92.985 11.4923L95.1966 11.4952C95.3621 9.24989 94.341 4.87964 96.9481 4.66887C98.7035 4.5274 98.5938 5.9123 98.5871 7.32318C98.5813 8.64167 98.5159 10.1613 98.6131 11.4904L100.822 11.501L100.821 11.499Z" fill="#FDFDFD"/>
<path id="Vector_3" fill-rule="evenodd" clip-rule="evenodd" d="M13.048 7.6225C15.5291 7.37901 16.4135 6.00182 16.2701 3.30133L13.0519 3.28881L12.9681 1.47662L8.4853 1.48912C8.26395 2.2244 8.36018 8.61956 8.47374 9.6859C8.73263 12.1294 10.2513 13.5297 13.0249 13.2121L13.048 7.62346V7.6225Z" fill="#FDFFFD"/>
<path id="Vector_4" fill-rule="evenodd" clip-rule="evenodd" d="M43.3781 4.74398C46.6512 3.83451 46.7474 9.21336 44.5686 9.69552C41.2858 10.4231 41.0847 5.38205 43.3781 4.74398ZM41.9518 10.5973C42.6938 10.9842 42.7207 11.45 43.9661 11.6473C49.2612 12.4817 49.4373 4.20119 46.0853 2.94526C43.5378 1.99056 42.28 3.69112 41.7016 4.10206C41.3493 2.58917 41.6419 2.79993 39.6584 2.91638L39.6853 14.4931L41.922 14.5008L41.9528 10.5973H41.9518Z" fill="#FDFDFA"/>
<path id="Vector_5" fill-rule="evenodd" clip-rule="evenodd" d="M88.4867 7.73801C88.4607 8.76008 88.1836 9.32114 87.3261 9.69744C84.4158 10.9745 82.7373 7.45217 88.4867 7.73801ZM84.1415 5.51774C85.537 5.51389 84.5342 5.49752 85.3099 4.80748C85.6352 4.5178 86.1962 4.4283 86.7044 4.42445C87.9228 4.41482 88.7668 4.96533 88.3895 6.26264C85.6419 6.34733 81.9742 6.33769 82.4284 9.68973C82.6055 10.9938 83.6439 11.6011 85.0952 11.6944C85.8315 11.7416 86.6505 11.6222 87.2549 11.3913C87.9738 11.116 88.1143 10.7792 88.6253 10.5453C89.5386 11.7859 89.9178 11.937 91.8898 11.4865L91.8609 9.91494L90.8456 9.7648C90.2604 6.79195 91.9783 3.73345 88.5839 2.88846C86.3079 2.32161 82.4294 2.80377 82.7951 5.49176L84.1434 5.51678L84.1415 5.51774Z" fill="#FDFDFA"/>
<path id="Vector_6" fill-rule="evenodd" clip-rule="evenodd" d="M74.6609 6.23182C74.863 5.03652 75.426 4.45524 76.7781 4.43888C78.1072 4.42252 78.6664 4.99419 78.7982 6.24242L74.6599 6.23182H74.6609ZM79.1784 8.48096C78.4489 8.80914 78.7934 10.0554 76.6126 9.93225C75.2056 9.85333 74.7321 9.14308 74.6185 7.74182L81.1503 7.68698C81.3447 4.79208 80.2322 2.98661 77.5731 2.74505C74.6041 2.47462 72.7255 3.57944 72.3328 6.22604C71.2203 13.7318 81.5613 12.6636 81.0878 8.47807L79.1764 8.48193L79.1784 8.48096Z" fill="#FDFDFA"/>
<path id="Vector_7" fill-rule="evenodd" clip-rule="evenodd" d="M51.9743 6.24144C52.3082 3.78058 55.9288 3.74689 56.0972 6.23373L51.9743 6.24144ZM56.2848 8.50597C55.9008 9.16618 55.7161 10.1353 53.72 9.92069C52.4227 9.78115 52.0541 9.0449 51.9261 7.74084L58.4416 7.71006C58.8564 4.89889 57.3627 2.94328 54.8201 2.74118C51.9069 2.50828 49.9715 3.60252 49.652 6.27415C48.755 13.777 58.5994 12.6799 58.4281 8.49537L56.2848 8.50693V8.50597Z" fill="#FDFDFA"/>
<path id="Vector_8" fill-rule="evenodd" clip-rule="evenodd" d="M22.161 5.46769C22.1639 4.52165 22.6595 4.31184 23.952 4.37825C25.1637 4.43984 25.0723 4.74013 25.5467 5.40514L27.6207 5.38877C27.7583 2.03673 21.9733 2.11373 20.4345 3.8114C19.2141 5.15684 20.0293 6.94401 21.3593 7.50605C22.674 8.06232 24.5324 8.05655 25.5515 8.72157C25.7113 9.98135 24.8346 10.1382 23.3149 9.98615C22.7721 9.93226 22.4007 9.78501 22.1456 9.44913C21.5268 8.63494 22.6807 8.73793 19.6703 8.81877C19.5067 12.2459 25.5852 12.3873 27.2357 10.6165C28.4551 9.30767 27.9585 7.3155 26.5034 6.69957C25.1031 6.10769 23.286 6.09614 22.161 5.46865V5.46769Z" fill="#FDFDFD"/>
<path id="Vector_9" fill-rule="evenodd" clip-rule="evenodd" d="M29.4868 2.93463C29.3309 4.48698 29.2366 9.42217 29.8958 10.4953C30.4001 11.3171 31.504 11.7704 32.7561 11.6934C34.2132 11.6039 34.7338 10.8898 35.472 10.3057C35.6981 10.6666 35.7029 11.0573 35.7828 11.5019L37.6114 11.4932L37.5305 2.89133L35.3969 2.91346C35.0822 5.15393 36.3362 9.45875 33.5395 9.72918C30.7235 10.0015 32.067 6.58886 31.6743 2.90479L29.4868 2.93656V2.93463Z" fill="#FDFDFA"/>
<path id="Vector_10" fill-rule="evenodd" clip-rule="evenodd" d="M120.901 10.7022L120.967 1.19559L115.537 2.19072L115.49 11.5462L115.562 11.9206C116.848 12.0216 119.292 11.2488 120.8 11.1314C120.985 10.7186 120.875 10.8167 120.901 10.7031V10.7022Z" fill="#FAFAFA"/>
<path id="Vector_11" fill-rule="evenodd" clip-rule="evenodd" d="M69.6564 9.7956C69.1261 9.00162 69.1406 5.85458 69.3783 4.70451L71.1231 4.69392L71.1192 2.90384L69.333 2.8846L69.2955 0.393919C69.0241 0.392956 68.3244 0.353486 68.1031 0.381395C67.3938 0.472823 67.5603 -0.075741 67.1474 2.86343L65.7953 2.93465L65.8318 4.67467L67.0396 4.70834C67.0608 8.36257 65.9954 13.035 71.1163 11.422L71.1135 9.92457L69.6564 9.79463V9.7956Z" fill="#FDFDFD"/>
<path id="Vector_12" fill-rule="evenodd" clip-rule="evenodd" d="M62.4028 11.5154C62.6069 6.91032 61.4289 4.9547 65.3198 4.94893L65.3122 2.79798C62.7137 2.45055 62.9023 3.62661 62.1641 4.19924L61.9582 2.90289L60.1489 2.91732L60.1681 11.501L62.4038 11.5154H62.4028Z" fill="#FDFDFA"/>
<path id="Vector_13" fill-rule="evenodd" clip-rule="evenodd" d="M113.396 19.152L117.129 24.4125L118.212 24.3942L118.21 17.0559L117.089 17.053L117.063 22.3376C116.612 22.0412 115.317 19.9682 114.941 19.4273C113.491 17.3379 113.631 17.029 112.251 17.0463L112.295 24.427L113.361 24.3625L113.396 19.152Z" fill="#FAFAFA"/>
<path id="Vector_14" fill-rule="evenodd" clip-rule="evenodd" d="M124.856 21.5619C124.893 24.3615 120.501 24.299 120.715 20.4417C120.877 17.5025 123.562 17.5054 124.462 18.7122C125.051 19.5023 124.642 19.4388 125.918 19.357C125.23 15.5132 118.732 16.2312 119.649 21.6216C119.961 23.454 121.253 24.7186 123.308 24.5174C125.337 24.3192 126.053 22.8775 125.968 20.6688L123.127 20.7073L123.124 21.5455L124.856 21.5619Z" fill="#FAFAFA"/>
<path id="Vector_15" fill-rule="evenodd" clip-rule="evenodd" d="M120.967 1.19462L120.901 10.7012L121.95 10.604C124.642 10.6348 123.326 10.3451 125.446 11.0544C125.733 10.7705 125.451 11.2267 125.785 10.6819C126.145 10.0939 125.962 4.91622 125.966 3.9596C125.968 3.48994 126.148 1.92988 125.731 1.99436C125.612 1.17343 125.863 1.34281 124.831 1.17247C124.403 1.10221 124 1.05892 123.532 1.05026C122.735 1.03486 121.647 0.934773 120.968 1.19366L120.967 1.19462Z" fill="#088559"/>
<path id="Vector_16" fill-rule="evenodd" clip-rule="evenodd" d="M115.562 11.9187L115.49 11.5443L115.537 2.18878C114.617 2.24653 113.717 2.31678 112.794 2.27828C111.883 2.24075 111.247 1.89526 110.716 1.96167L110.348 2.03864C110.454 2.64303 110.558 2.07812 110.626 2.80377L110.598 11.2941C111.81 12.166 114.017 12.0592 115.562 11.9177V11.9187Z" fill="#01693B"/>
<path id="Vector_17" fill-rule="evenodd" clip-rule="evenodd" d="M88.4867 7.73798C82.7373 7.45215 84.4158 10.9745 87.3261 9.69742C88.1836 9.32112 88.4607 8.76005 88.4867 7.73798Z" fill="#2B2941"/>
<path id="Vector_18" fill-rule="evenodd" clip-rule="evenodd" d="M74.6609 6.23182L78.7992 6.24242C78.6674 4.99418 78.1082 4.42252 76.7791 4.43888C75.426 4.45524 74.863 5.03652 74.6619 6.23182H74.6609Z" fill="#2B2941"/>
<path id="Vector_19" fill-rule="evenodd" clip-rule="evenodd" d="M51.9742 6.24144L56.0972 6.23374C55.9288 3.7469 52.3082 3.78059 51.9742 6.24144Z" fill="#2B2941"/>
</g>
</svg>
