<svg width="119" height="28" viewBox="0 0 119 28" fill="none" xmlns="http://www.w3.org/2000/svg">
<g id="_2335877535872">
<path id="Vector" fill-rule="evenodd" clip-rule="evenodd" d="M53.442 11.3061H34.809C34.9803 10.5689 35.3152 9.83555 35.6703 9.17053C35.858 8.82022 36.2391 8.27068 36.4903 7.96272L36.9628 7.40645C37.2024 7.11966 38.0099 6.45656 38.3237 6.23906L39.2658 5.65296C39.7143 5.42583 40.1676 5.19774 40.668 5.0274C41.4312 4.76851 42.767 4.44996 43.6255 4.45862C43.842 4.46054 43.9296 4.42878 44.124 4.42782C44.33 4.4259 44.4185 4.45766 44.5946 4.45958C44.7842 4.46151 44.9238 4.45958 45.0739 4.47979C45.9141 4.5895 46.7119 4.64821 47.5848 4.99564C48.2046 5.24298 48.3336 5.25837 48.9938 5.6135C49.2161 5.73284 49.4114 5.85602 49.6145 5.99172C49.8282 6.13416 50.0197 6.25831 50.215 6.41999C50.3122 6.49987 50.397 6.55954 50.4932 6.64134C51.5894 7.56813 52.2419 8.55844 52.8828 9.83651C53.0416 10.1531 53.3602 10.9577 53.441 11.3061H53.442ZM30.7832 0.931421V27.6169H40.6873V27.4696H42.4215V27.6169H57.5562V18.271H53.0888C52.9848 18.7175 52.0658 20.0793 51.7145 20.4816C51.4286 20.8088 51.1678 21.113 50.8483 21.4084C50.7935 21.4594 50.7848 21.4575 50.7338 21.4989C50.6828 21.5393 50.6607 21.5672 50.6135 21.6144C50.0553 22.1735 48.8148 22.8867 48.1421 23.1985C47.1084 23.6777 45.608 24.0309 44.4484 24.0309H43.8902C42.5399 24.0309 41.003 23.5979 40.0993 23.1494C39.9617 23.0811 39.8404 23.0445 39.6999 22.9608C39.0801 22.5893 38.5152 22.3102 37.931 21.7895C37.0937 21.0427 36.8916 20.855 36.2275 19.9667C36.0562 19.7377 35.9128 19.5077 35.7617 19.2565C35.4855 18.7965 35.1785 18.1834 34.9957 17.6714C34.654 16.7119 34.3971 15.7283 34.3971 14.6254H57.5553V0.841919H30.8698C30.8025 0.841919 30.7813 0.86309 30.7813 0.930458L30.7832 0.931421Z" fill="white"/>
<path id="Vector_2" fill-rule="evenodd" clip-rule="evenodd" d="M95.7337 14.4214C95.7337 12.6997 96.0147 11.4274 96.6249 10.1108C96.8963 9.52567 97.3563 8.74708 97.7576 8.24567L98.6064 7.27269C99.3206 6.55378 100.164 6.00232 101.044 5.50765C101.183 5.4297 101.326 5.37965 101.465 5.31132C102.323 4.88401 103.841 4.51156 104.815 4.45863C104.91 4.45382 105.014 4.46248 105.11 4.4596C105.255 4.45575 105.258 4.43361 105.403 4.42784L106.548 4.48943C108.068 4.60396 109.717 5.25646 110.97 6.09182C111.747 6.60959 112.133 6.99167 112.744 7.60953C113.716 8.59214 114.633 10.3668 114.972 11.7286C115.377 13.3522 115.397 15.0344 114.989 16.6609C114.85 17.2181 114.47 18.3085 114.167 18.8061C113.884 19.2709 113.834 19.3893 113.497 19.8994C113.273 20.2372 113.094 20.4277 112.847 20.7193C112.127 21.5701 111.013 22.4468 110.037 22.9348C108.844 23.5315 107.42 24.0319 105.785 24.0319C104.674 24.0319 104.185 24.0069 103.11 23.7384C102.314 23.5392 102.062 23.3987 101.36 23.109C100.579 22.7866 99.8614 22.2197 99.2022 21.7106C99.1338 21.6586 99.1127 21.6288 99.0463 21.573C97.1176 19.9417 95.7337 17.1286 95.7337 14.4224V14.4214ZM92.1488 0.931435V27.6169H118.922V0.931435C118.922 0.864067 118.902 0.842896 118.833 0.842896H92.2363C92.169 0.842896 92.1478 0.864067 92.1478 0.931435H92.1488Z" fill="white"/>
<path id="Vector_3" fill-rule="evenodd" clip-rule="evenodd" d="M0.453209 0.931435V27.6169H27.2262V18.271H22.8175C22.7183 18.271 22.7318 18.3547 22.6413 18.5357C22.4383 18.9408 22.2429 19.295 21.9888 19.6761L21.4133 20.4528C21.3363 20.5413 21.2892 20.6019 21.2083 20.6885C21.1265 20.7771 21.0948 20.8329 21.0024 20.9234C19.8947 22.0176 19.2489 22.5258 17.8303 23.1889C16.839 23.6518 15.3781 24.031 14.1472 24.031C12.6526 24.031 11.8875 23.9193 10.543 23.4622C9.77984 23.2023 8.77124 22.6663 8.17263 22.2178L7.83675 21.9656C7.70971 21.8713 7.61155 21.7934 7.49702 21.6875L7.17462 21.393C7.10725 21.3314 7.07934 21.3237 7.01293 21.2612L6.43453 20.6337C5.76373 19.7743 5.40284 19.3624 4.88988 18.2113C3.64646 15.4184 3.76675 12.1752 5.25173 9.52182C5.66172 8.78847 5.95044 8.39773 6.48554 7.7587L7.14574 7.09657C8.53256 5.81273 9.89725 5.10922 11.7672 4.66362C12.0482 4.59626 12.3581 4.55102 12.6728 4.51156C14.7776 4.24787 17.0257 4.7204 18.8081 5.79252C19.5059 6.21212 19.7359 6.42963 20.3528 6.92237C20.449 6.99937 20.5433 7.10715 20.6347 7.19858C21.0082 7.57199 21.0784 7.62685 21.4133 8.03684C21.857 8.58059 22.1698 9.0589 22.5037 9.67965C22.573 9.80861 22.6269 9.87694 22.6866 10.0252C22.727 10.1224 22.7992 10.3649 22.9051 10.3649H27.2253V0.931435C27.2253 0.864067 27.2051 0.842896 27.1367 0.842896H0.539827C0.472459 0.842896 0.451294 0.864067 0.451294 0.931435H0.453209Z" fill="white"/>
<path id="Vector_4" fill-rule="evenodd" clip-rule="evenodd" d="M61.1124 27.6169H88.8266V18.271H84.3591C84.2735 18.6377 83.8144 19.423 83.6046 19.7791C83.3399 20.2266 82.7567 20.9224 82.3833 21.291C79.7925 23.8539 75.3106 24.7008 71.7844 23.3804C68.8905 22.2967 66.7481 20.0322 65.9551 16.8659C65.8165 16.3144 65.7405 15.7495 65.6712 15.122C65.6154 14.6177 65.6375 13.6149 65.6375 13.0981V1.28368C65.6375 1.14605 65.6924 0.842896 65.549 0.842896H61.1114V27.6169H61.1124Z" fill="white"/>
</g>
</svg>
