<svg width="132" height="19" viewBox="0 0 132 19" fill="none" xmlns="http://www.w3.org/2000/svg">
<g id="_2335877536592">
<g id="Group">
<path id="Vector" fill-rule="evenodd" clip-rule="evenodd" d="M50.416 10.7226L52.3755 10.7302C52.7576 10.7264 52.7104 10.7774 52.7855 10.4675C52.9616 9.74376 53.1348 9.06049 53.3234 8.31271C53.3802 8.08847 54.2724 4.23692 54.3869 4.05695L56.0018 10.7226H58.2904C58.4886 9.86987 58.7504 9.08452 58.9631 8.23183C59.1748 7.383 59.428 6.58424 59.6368 5.74021C59.8495 4.87983 60.1016 4.08968 60.3095 3.24855L60.9822 0.689541L59.0218 0.680847C58.6946 0.696246 58.7273 0.702027 58.6686 1.00133L57.7688 5.35234C57.6186 6.10494 57.4502 6.82964 57.2808 7.55721H57.1461C56.6091 5.24938 55.9989 2.98775 55.4638 0.689541H53.31L52.4621 4.08294C52.3168 4.66423 51.6344 7.17801 51.6277 7.48983H51.4256C51.4256 7.01344 50.8895 4.77874 50.7587 4.11757C50.6451 3.5488 50.5344 2.98675 50.4228 2.43337C50.3246 1.94736 50.0802 1.18229 50.0802 0.689541H47.7916L48.2612 2.57581C48.9224 5.14349 49.829 8.19816 50.416 10.7216V10.7226Z" fill="white"/>
<path id="Vector_2" fill-rule="evenodd" clip-rule="evenodd" d="M29.0806 0.824212V10.5877C29.0806 10.939 29.7928 10.7898 30.7629 10.7898C30.9448 10.7898 30.9486 10.7581 31.0997 10.7225V3.98956C31.8465 4.84898 33.9725 7.91518 34.8694 9.10663L35.8107 10.3866C36.186 10.9352 35.9444 10.7898 37.696 10.7898C37.8779 10.7898 37.8817 10.7581 38.0328 10.7225V0.689485C37.4891 0.562449 36.8501 0.622099 36.2832 0.622099C35.9541 0.622099 36.0811 1.30927 36.0811 1.96852V6.74969C35.8819 6.61592 35.112 5.48994 34.9233 5.21469C34.7366 4.94041 34.5644 4.70268 34.3594 4.43129C34.1448 4.14738 34.0052 3.91638 33.8031 3.6421L32.6752 2.07726C32.476 1.7741 32.3017 1.56621 32.1102 1.29578C31.4866 0.413258 31.8668 0.623038 29.2827 0.623038C29.1278 0.623038 29.0806 0.670205 29.0806 0.825152V0.824212Z" fill="white"/>
<path id="Vector_3" fill-rule="evenodd" clip-rule="evenodd" d="M120.212 5.6728C120.212 4.07522 121.612 2.64223 123.039 2.64223C124.088 2.64223 124.5 2.801 125.3 3.47756C125.744 3.8529 126.202 4.8307 126.202 5.33596V5.87492C126.202 7.23575 124.863 8.63505 123.51 8.63505C122.815 8.63505 122.527 8.66393 121.861 8.3319C121.447 8.12595 121.371 8.00568 121.07 7.70926C120.586 7.23191 120.212 6.41965 120.212 5.67186V5.6728ZM118.058 5.53808C118.058 7.43785 118.543 8.07783 119.528 9.32029C119.696 9.53298 119.962 9.69273 120.192 9.86789C122.313 11.4751 125.527 11.1027 127.202 9.03063C128.983 6.82673 128.837 3.91546 126.859 1.91944C126.47 1.52678 125.868 1.07352 125.336 0.883924C125.009 0.767474 124.735 0.659658 124.373 0.56823C122.432 0.0783688 120.079 1.00325 119.027 2.60276C118.437 3.49971 118.057 4.29078 118.057 5.53902L118.058 5.53808Z" fill="white"/>
<path id="Vector_4" fill-rule="evenodd" clip-rule="evenodd" d="M85.2809 5.40335H83.666V2.44011C85.0239 2.44011 87.1662 2.16485 87.1662 3.65176C87.1662 4.80568 86.9459 5.40236 85.2819 5.40236L85.2809 5.40335ZM81.3774 10.5878C81.3774 10.7427 81.4246 10.7899 81.5795 10.7899H83.4639C83.6188 10.7899 83.666 10.7427 83.666 10.5878V7.15395C85.0961 7.15395 84.4128 6.91912 85.944 8.98251C86.1067 9.20193 87.0845 10.7899 87.3674 10.7899C90.1728 10.7899 90.3162 11.0825 89.3355 9.89871L87.8871 7.98063C87.6378 7.64668 87.3895 7.35317 87.1653 7.01922C87.7062 6.76034 88.2268 6.70836 88.7917 5.95287C89.8908 4.48425 89.7041 1.92235 87.5695 0.958028C87.2991 0.835803 86.6235 0.689514 86.2222 0.689514H81.3764V10.5878H81.3774Z" fill="white"/>
<path id="Vector_5" fill-rule="evenodd" clip-rule="evenodd" d="M9.62856 10.5204C9.62856 10.6754 9.67573 10.7225 9.83068 10.7225H11.8498V6.48028H16.426V10.7225H18.4451C18.6001 10.7225 18.6472 10.6754 18.6472 10.5204V0.824255C18.6472 0.669308 18.6001 0.622141 18.4451 0.622141C16.0006 0.622141 16.426 0.190037 16.426 2.44013C16.426 2.77697 16.4241 3.11381 16.426 3.45065C16.4279 3.78075 16.5309 4.25807 16.2239 4.25807H11.8488V0.622141H9.62762V10.5204H9.62856Z" fill="white"/>
<path id="Vector_6" fill-rule="evenodd" clip-rule="evenodd" d="M19.9262 0.824281V10.7226H27.8006V8.8372H22.3486C22.1937 8.8372 22.1465 8.79003 22.1465 8.63509V6.74976H26.7237V4.72971H22.1465V2.57582H27.1279C27.483 2.57582 27.33 1.81264 27.33 0.825221C27.33 0.670275 27.2828 0.623108 27.1279 0.623108H20.1274C19.9724 0.623108 19.9253 0.670275 19.9253 0.825221L19.9262 0.824281Z" fill="white"/>
<path id="Vector_7" fill-rule="evenodd" clip-rule="evenodd" d="M39.3783 0.824281V10.7226H47.0515C47.4028 10.7226 47.2536 10.0094 47.2536 9.03932C47.2536 8.88437 47.2074 8.8372 47.0515 8.8372H41.5995V6.74976H45.9746C46.1295 6.74976 46.1766 6.70259 46.1766 6.54765V4.72971H41.6005V2.57582H46.7156C46.8426 2.0311 46.783 1.39207 46.783 0.825221C46.783 0.670275 46.7358 0.623108 46.5809 0.623108H39.5804C39.4254 0.623108 39.3783 0.670275 39.3783 0.825221V0.824281Z" fill="white"/>
<path id="Vector_8" fill-rule="evenodd" clip-rule="evenodd" d="M67.5795 7.96137C67.5795 9.10663 66.2937 9.17306 65.4256 9.17306C64.2602 9.17306 63.6962 8.64662 63.4739 7.69192C62.9119 7.69192 61.8782 7.35508 61.32 7.35508C61.32 9.21828 62.2728 10.2866 63.9041 10.7629C65.5921 11.2557 68.1348 11.0141 69.2647 9.44444C69.8267 8.66394 69.9008 7.32719 69.4841 6.46006C68.794 5.02224 66.6729 4.80951 65.2832 4.40049C64.8876 4.28404 64.2881 4.16473 64.0148 3.85195C63.5355 3.30531 63.8945 2.238 65.1571 2.238C65.8058 2.238 66.5497 2.17062 67.0155 2.87028C67.1108 3.01272 67.1695 3.25431 67.2301 3.32841C67.3745 3.50645 67.7508 3.47661 68.283 3.55552C68.6439 3.60846 69.0885 3.71241 69.3984 3.71915C69.3984 2.53925 69.1665 1.83283 68.1492 1.13124C66.8278 0.21985 64.2784 0.167894 62.8974 1.12067C62.7656 1.2121 62.729 1.2756 62.6096 1.37184C62.4942 1.4652 62.421 1.4979 62.3132 1.61338C61.988 1.96273 61.7348 2.52767 61.653 3.10896C61.4721 4.3928 62.0755 5.31287 63.1428 5.87106C64.6009 6.63328 67.5824 6.6015 67.5824 7.96137H67.5795Z" fill="white"/>
<path id="Vector_9" fill-rule="evenodd" clip-rule="evenodd" d="M75.5212 10.7899C77.1823 10.7899 78.3006 10.1191 79.3073 9.12401C79.5527 8.88149 79.9963 8.36854 80.031 7.96241C79.6961 7.80169 79.4064 7.70257 79.0676 7.51298C78.7731 7.34841 78.4844 7.09627 78.0792 7.0876C77.9676 7.50721 77.522 7.86809 77.2054 8.09906C76.6453 8.50712 76.1294 8.5687 75.3864 8.5687C74.552 8.5687 73.9515 8.10966 73.5175 7.67754C71.1461 5.31389 74.2066 1.35841 77.0841 3.16676L77.6009 3.59214C78.2121 4.23117 77.7049 4.44388 79.9627 3.24858C79.9097 2.61339 78.8472 1.74338 78.3208 1.39018C76.2141 -0.0255124 73.4395 0.352714 71.6668 2.35643C71.5359 2.50464 71.4859 2.56817 71.3656 2.72889C71.022 3.18892 70.6967 3.90204 70.5668 4.48814C70.2906 5.73926 70.3974 6.5371 70.8651 7.70353C71.1038 8.29926 71.4801 8.80548 71.9016 9.22509C72.3231 9.6447 72.7966 10.0441 73.3933 10.2914C73.9823 10.5349 74.7272 10.7899 75.5193 10.7899H75.5212Z" fill="white"/>
<path id="Vector_10" fill-rule="evenodd" clip-rule="evenodd" d="M103.857 5.40335H102.578V2.44011C103.829 2.44011 105.46 2.23414 105.958 3.16671C106.286 3.78168 106.169 4.78931 105.477 5.1377C105.08 5.33788 104.462 5.40335 103.857 5.40335ZM100.29 10.7225H102.579V7.15395C104.238 7.15395 106.195 7.3955 107.342 6.33013C109.128 4.67287 108.491 0.689514 105.136 0.689514H100.29V10.7225Z" fill="white"/>
<path id="Vector_11" fill-rule="evenodd" clip-rule="evenodd" d="M93.5595 7.01923V10.7225H95.7807V7.08657C95.7807 6.79208 97.0886 4.73061 97.3561 4.28598L98.0683 3.11282C98.2771 2.79908 99.4262 0.929138 99.4821 0.688538H96.9914C96.797 0.979182 96.6362 1.31893 96.4495 1.62786C96.259 1.94449 96.0636 2.2409 95.8702 2.59698C95.646 3.00985 94.8327 4.25807 94.7702 4.52658H94.6354C94.5517 4.21187 92.4681 0.888717 92.4142 0.688538H89.8561L92.6538 5.36388C92.8473 5.6834 93.5585 6.74973 93.5585 7.01824L93.5595 7.01923Z" fill="white"/>
<path id="Vector_12" fill-rule="evenodd" clip-rule="evenodd" d="M108.972 2.57485H112.136V10.7216H114.424V2.64125H117.386C117.742 2.64125 117.588 1.87904 117.588 0.890651C117.588 0.735705 117.541 0.688538 117.386 0.688538H108.972V2.57386V2.57485Z" fill="white"/>
<path id="Vector_13" fill-rule="evenodd" clip-rule="evenodd" d="M0.0709839 2.57484H3.03229C3.18724 2.57484 3.23438 2.62105 3.23438 2.77695V10.7225H5.52297V2.64223H8.619C8.74604 2.09751 8.68639 1.45843 8.68639 0.891581C8.68639 0.736634 8.63922 0.689514 8.48428 0.689514H0.0709839V2.57484Z" fill="white"/>
<path id="Vector_14" fill-rule="evenodd" clip-rule="evenodd" d="M60.7811 17.5902C61.7849 17.5902 62.8002 17.3612 62.8002 16.0417H61.9254C61.834 17.1379 59.9736 17.2629 59.9736 15.5701C59.9736 14.805 60.2402 14.2911 61.0506 14.2911C62.0351 14.2911 61.6857 15.0985 62.0601 15.0985H62.8002C62.8002 13.2459 60.475 13.1679 59.5867 13.9716C58.9525 14.5451 58.8717 16.1937 59.4231 16.929C59.6984 17.2957 60.1574 17.5902 60.7811 17.5902Z" fill="white"/>
<path id="Vector_15" fill-rule="evenodd" clip-rule="evenodd" d="M27.7342 15.4354C26.7516 15.4354 26.9267 15.6279 26.9267 14.3585C27.6283 14.3585 28.6225 14.1669 28.4416 14.9936C28.3665 15.3372 28.1163 15.4354 27.7351 15.4354H27.7342ZM26.0519 17.5228H26.9267V16.1764C28.3857 16.1764 29.3501 16.4026 29.3501 14.6953C29.3501 13.2401 27.4618 13.551 26.0519 13.551V17.5238V17.5228Z" fill="white"/>
<path id="Vector_16" fill-rule="evenodd" clip-rule="evenodd" d="M79.4247 16.3112C79.4247 16.5383 79.4815 16.7058 79.5585 16.8501L79.7307 17.0811C79.7404 17.0907 79.7557 17.1042 79.7654 17.1138C80.6931 18.0098 82.8566 17.6739 82.8566 16.2429V13.5491H81.9818C81.9818 14.243 82.1002 16.1447 81.8095 16.5421C81.5477 16.9011 80.2985 17.212 80.2985 15.8386V13.5491H79.4237V16.3093L79.4247 16.3112Z" fill="white"/>
<path id="Vector_17" fill-rule="evenodd" clip-rule="evenodd" d="M87.9727 16.0417C87.9727 14.6376 89.1844 15.0071 89.1844 15.7722C89.1844 16.4199 89.2219 16.8501 88.5116 16.8501C88.0766 16.8501 87.9727 16.4642 87.9727 16.0417ZM89.1844 14.6944C88.7513 14.5789 89.0467 14.4249 88.2422 14.4249C86.6927 14.4249 86.6927 17.5892 88.2422 17.5892C89.1016 17.5892 88.8552 17.3765 89.3191 17.2524V17.5219H90.0592V13.5491C90.0592 13.2806 89.8686 13.347 89.3865 13.347C89.0573 13.347 89.1844 14.0341 89.1844 14.6934V14.6944Z" fill="white"/>
<path id="Vector_18" fill-rule="evenodd" clip-rule="evenodd" d="M84.5399 15.9744C84.5399 15.7896 84.612 15.4749 84.6717 15.3661C84.8632 15.0168 85.3723 15.036 85.6033 15.3151C85.8439 15.6058 85.8468 16.8502 85.3483 16.8502C84.8757 16.8502 84.5408 16.8453 84.5408 15.9744H84.5399ZM84.4725 14.8301C84.4638 14.4268 84.5023 14.4932 83.665 14.4932V18.5334H84.5399V17.2543C85.0702 17.6104 84.8401 17.5912 85.6168 17.5912C86.9026 17.5912 87.1124 14.4268 85.4821 14.4268C84.7747 14.4268 84.8661 14.5673 84.4725 14.831V14.8301Z" fill="white"/>
<path id="Vector_19" fill-rule="evenodd" clip-rule="evenodd" d="M70.4734 16.8501C69.4186 16.8501 69.8584 15.4248 69.9489 15.3151C70.1799 15.036 70.689 15.0168 70.8805 15.3661C71.0287 15.6365 71.2106 16.8501 70.4734 16.8501ZM69.666 14.83C69.6573 14.4326 69.691 14.4932 68.9249 14.4932V18.5333H69.7998V17.3217C70.2078 17.5382 70.7699 17.7673 71.2655 17.441C71.4185 17.3399 71.5042 17.2697 71.5994 17.1013C71.9498 16.4777 71.9844 15.4922 71.609 14.9061C71.3713 14.5346 71.0287 14.4258 70.5408 14.4258C70.0153 14.4258 69.9528 14.6375 69.666 14.83Z" fill="white"/>
<path id="Vector_20" fill-rule="evenodd" clip-rule="evenodd" d="M131.924 1.66054V2.30537C131.924 3.08395 130.489 4.02997 129.414 2.93187C129.174 2.68742 129.03 2.32746 129.03 1.90208C129.03 1.07923 129.998 -0.172817 131.452 0.757824C131.805 0.983988 131.901 1.31117 131.924 1.66148V1.66054ZM130.309 1.76642V1.42958C130.491 1.44498 130.492 1.46131 130.646 1.49692C130.621 1.78852 130.607 1.75872 130.309 1.76642ZM129.838 1.09368V2.70955H130.309V2.10326C130.684 2.13502 130.466 2.13981 130.848 2.70955H131.251C131.226 2.40832 131.047 2.16679 130.914 1.96853C131.594 0.953199 130.309 1.09274 129.837 1.09274L129.838 1.09368Z" fill="white"/>
<path id="Vector_21" fill-rule="evenodd" clip-rule="evenodd" d="M91.9436 16.9175C91.4219 16.9175 91.1477 16.2438 92.5499 16.2438C92.5403 16.6567 92.3555 16.9175 91.9436 16.9175ZM90.7993 15.0995V15.4364H91.6067C91.6558 14.8387 92.5489 15.0052 92.5489 15.369V15.6384C89.8561 15.6384 90.3864 17.5911 91.5394 17.5911C92.5143 17.5911 92.187 17.3871 92.6836 17.2543C92.7337 17.4429 92.6663 17.3669 92.8559 17.4872C93.1379 17.6662 93.4949 17.5864 93.7606 17.5238V16.9175C93.4959 16.9117 93.6027 16.9358 93.4237 16.8501C93.4237 15.1534 93.647 14.4258 92.01 14.4258C91.5297 14.4258 90.7983 14.6741 90.7983 15.0985L90.7993 15.0995Z" fill="white"/>
<path id="Vector_22" fill-rule="evenodd" clip-rule="evenodd" d="M98.203 15.6385H97.0587C97.0674 15.2448 97.2224 15.0832 97.6073 15.0697C98.0106 15.0553 98.1145 15.2602 98.203 15.6385ZM96.1165 15.8406C96.1165 16.3324 96.1348 16.7674 96.439 17.134C97.1049 17.9357 99.0779 17.6826 99.0779 16.5816C99.0779 16.3131 98.8873 16.3795 98.4052 16.3795C97.9653 16.3795 98.5207 16.9185 97.5304 16.9185C97.078 16.9185 97.0751 16.6019 96.9914 16.2448C97.3725 16.2448 97.7545 16.2438 98.1357 16.2448C98.9373 16.2467 99.0779 16.3863 99.0779 15.8406C99.0779 14.7569 98.4312 14.4268 97.5304 14.4268C96.6584 14.4268 96.1165 14.9686 96.1165 15.8406Z" fill="white"/>
<path id="Vector_23" fill-rule="evenodd" clip-rule="evenodd" d="M38.9067 16.9175C38.3793 16.9175 38.3572 16.5912 38.591 16.4064C38.8114 16.2313 39.1473 16.2448 39.512 16.2448C39.4803 16.6269 39.3147 16.9185 38.9057 16.9185L38.9067 16.9175ZM37.7624 15.1669V15.4364H38.5698C38.617 14.8647 39.1126 15.0899 39.4447 15.1669C39.4668 15.4286 39.5053 15.342 39.512 15.6384C36.7701 15.6384 37.3678 17.5912 38.5025 17.5912C39.4793 17.5912 39.1386 17.39 39.6468 17.2543C39.7728 17.7259 40.3647 17.6075 40.7237 17.5238V16.9175C40.1241 16.904 40.3474 16.5855 40.3243 15.3642C40.3176 15.01 40.2454 14.8185 40.0163 14.6626C39.4148 14.2536 37.7624 14.3238 37.7624 15.1659V15.1669Z" fill="white"/>
<path id="Vector_24" fill-rule="evenodd" clip-rule="evenodd" d="M75.2517 16.1091C75.2517 15.2342 75.45 15.0985 76.1266 15.0985C76.703 15.0985 76.9494 16.9165 75.9244 16.9165C75.4452 16.9165 75.2517 16.5835 75.2517 16.1081V16.1091ZM74.3769 16.0417C74.3769 17.4025 75.2075 17.5902 76.1939 17.5902C77.8656 17.5902 78.1168 14.4258 76.0592 14.4258C74.9717 14.4258 74.3769 14.8012 74.3769 16.0417Z" fill="white"/>
<path id="Vector_25" fill-rule="evenodd" clip-rule="evenodd" d="M31.3009 16.9175C30.2172 16.9175 30.3904 15.0996 31.1661 15.0996C31.5058 15.0996 31.6694 15.0707 31.8234 15.3854C32.0842 15.9195 32.0236 16.9175 31.3009 16.9175ZM29.6859 15.907C29.6859 16.3651 29.7783 16.8146 30.0035 17.0715C30.7956 17.9714 32.8282 17.8645 32.8311 15.9744C32.8311 15.6308 32.6723 15.0823 32.4894 14.8532C31.9909 14.2305 29.6859 14.0399 29.6859 15.907Z" fill="white"/>
<path id="Vector_26" fill-rule="evenodd" clip-rule="evenodd" d="M65.9636 17.9271H65.6268V18.5334C65.8375 18.5507 65.8664 18.6008 66.0983 18.6008C67.1916 18.6008 67.3494 17.7077 67.6382 16.9098C67.7681 16.5509 68.4485 14.7415 68.4533 14.4932C67.3543 14.4932 67.7142 14.3296 67.335 15.4614C67.2253 15.7896 67.0482 16.2101 67.0405 16.5807L66.6633 15.5451C66.5632 15.2583 66.3235 14.7646 66.3004 14.4932H65.3582L66.4323 17.264C66.5651 17.6316 66.3755 17.9271 65.9636 17.9271Z" fill="white"/>
<path id="Vector_27" fill-rule="evenodd" clip-rule="evenodd" d="M99.6168 15.3016C99.6168 16.5142 101.094 16.0927 101.501 16.648C101.415 16.9743 101.353 16.9175 100.828 16.9175C100.247 16.9175 100.575 16.5133 100.222 16.5133H99.5495C99.5495 17.5729 100.496 17.5902 101.232 17.5902C101.987 17.5902 102.645 16.879 102.243 16.1755C102.09 15.906 101.761 15.7675 101.395 15.677C100.873 15.5471 100.572 15.5326 100.493 15.2343C100.722 14.9205 101.392 14.9369 101.435 15.4364H102.242C102.242 14.5385 101.682 14.4268 100.828 14.4268C100.222 14.4268 99.6168 14.7223 99.6168 15.3026V15.3016Z" fill="white"/>
<path id="Vector_28" fill-rule="evenodd" clip-rule="evenodd" d="M2.29219 17.1196C0.709039 17.1196 0.677301 16.5017 0.677301 15.1669C0.677301 13.5789 3.50386 13.3874 3.50386 15.4364C3.50386 16.2727 3.25459 17.1196 2.29219 17.1196ZM0.0709839 15.5711C0.0709839 16.6654 0.726367 17.5912 1.88798 17.5912C2.53087 17.5912 3.03999 17.5873 3.55776 17.0397C4.32383 16.2265 4.43835 13.4846 2.0901 13.4846C1.44144 13.4846 0.955428 13.7041 0.622437 14.0371C0.257688 14.4018 0.0709839 15.0302 0.0709839 15.5721V15.5711Z" fill="white"/>
<path id="Vector_29" fill-rule="evenodd" clip-rule="evenodd" d="M12.5899 14.4259C12.5899 15.4605 13.2 15.4595 14.4329 15.8146C15.71 16.1822 15.2115 17.1196 14.3395 17.1196C13.9344 17.1196 13.4676 17.1658 13.174 16.8723C12.7313 16.4286 13.3896 16.2448 12.4551 16.2448C12.4551 17.4892 13.303 17.5912 14.3395 17.5912C15.8476 17.5912 16.2595 15.9407 14.9381 15.4441C14.4704 15.2679 13.6572 15.1785 13.3146 14.9138C12.2434 14.0871 15.0498 13.3143 15.0806 14.6963H15.6186C15.5801 12.9582 12.5899 13.2585 12.5899 14.4268V14.4259Z" fill="white"/>
<path id="Vector_30" fill-rule="evenodd" clip-rule="evenodd" d="M22.8875 17.187C21.5623 17.187 22.0512 15.2622 22.1994 15.0841C22.3919 14.8522 23.491 14.371 23.6113 15.9253C23.643 16.3333 23.4736 17.187 22.8875 17.187ZM21.9454 14.8301C21.9098 14.677 21.8934 14.6751 21.878 14.4932H21.4738V18.3313C21.4738 18.5603 21.5922 18.5334 21.8106 18.5334C22.083 18.5334 22.0214 18.2851 22.0166 17.9993C22.0127 17.751 22.0127 17.5026 22.0127 17.2543C22.543 17.6104 22.313 17.5912 23.0897 17.5912C24.2859 17.5912 24.7151 14.4268 22.8202 14.4268C22.2947 14.4268 22.2331 14.6386 21.9454 14.831V14.8301Z" fill="white"/>
<path id="Vector_31" fill-rule="evenodd" clip-rule="evenodd" d="M52.9731 17.187C52.3967 17.187 51.7576 16.11 53.9827 16.11C53.9827 16.5248 53.9586 16.649 53.7353 16.8732C53.5467 17.0638 53.3254 17.187 52.9722 17.187H52.9731ZM52.0983 15.1669V15.4364H52.5699C52.5699 15.0591 52.6373 14.83 53.31 14.83C53.9808 14.83 53.9827 15.2034 53.9827 15.7058C51.1696 15.7058 51.9886 17.2456 52.2571 17.4324C52.4881 17.5921 52.7614 17.5911 53.0395 17.5911C53.4793 17.5911 53.7151 17.366 53.9817 17.187C54.1578 17.5536 54.076 17.7057 54.8566 17.5238V17.187C54.3243 17.187 54.6448 17.2149 54.4523 17.1196C54.4523 15.1457 54.767 14.4258 53.1069 14.4258C52.6305 14.4258 52.0973 14.6962 52.0973 15.1669H52.0983Z" fill="white"/>
<path id="Vector_32" fill-rule="evenodd" clip-rule="evenodd" d="M9.22436 14.83C9.97984 14.83 10.0318 15.3247 10.0318 15.7722H8.34955C8.44579 15.3603 8.46791 14.83 9.22436 14.83ZM7.87796 15.8396C7.87796 17.1466 8.17631 17.5902 9.42647 17.5902C10.1204 17.5902 10.5034 17.1206 10.5034 16.445C9.76138 16.445 10.2051 16.5498 9.91249 16.931C9.6536 17.2678 8.37938 17.5007 8.34955 16.1755C8.92603 16.1755 10.5708 16.3025 10.5708 16.0407C10.5708 14.8695 10.1839 14.4249 9.08963 14.4249C8.29373 14.4249 7.87796 15.0321 7.87796 15.8386V15.8396Z" fill="white"/>
<path id="Vector_33" fill-rule="evenodd" clip-rule="evenodd" d="M35.4065 14.6953C35.4065 15.1958 35.3689 15.1669 35.8107 15.1669C35.8107 16.8588 35.5537 17.5912 36.7528 17.5912C36.9848 17.5912 37.0137 17.5421 37.2235 17.5238V16.9175C36.5277 16.9175 36.6855 17.1446 36.6855 15.1669C37.3072 15.1669 37.2235 15.2516 37.2235 14.4932H36.6855C36.6855 13.5039 36.7894 13.6174 36.1465 13.6174C35.8636 13.6174 35.9367 13.9812 35.8857 14.2324C35.8155 14.5808 35.9454 14.3768 35.6701 14.4874C35.495 14.5577 35.4055 14.4576 35.4055 14.6944L35.4065 14.6953Z" fill="white"/>
<path id="Vector_34" fill-rule="evenodd" clip-rule="evenodd" d="M72.6273 14.4932H72.2231V15.1669H72.5599C72.5599 17.7538 72.5031 17.6461 73.9727 17.5238V16.9175C73.2894 16.9175 73.4347 16.955 73.4347 15.1669H73.9727V14.4932H73.4347V13.6174H72.762C72.6956 13.9042 72.6273 14.1333 72.6273 14.4932Z" fill="white"/>
<path id="Vector_35" fill-rule="evenodd" clip-rule="evenodd" d="M94.3669 14.4932H93.9627V15.1669H94.2995C94.2995 17.7615 94.2793 17.6432 95.7133 17.5238V16.9175L95.1744 16.8502V15.1669H95.7133V14.4932H95.1744V13.6174H94.5017C94.4776 13.9013 94.3737 14.193 94.3669 14.4932Z" fill="white"/>
<path id="Vector_36" fill-rule="evenodd" clip-rule="evenodd" d="M18.5798 16.2438C18.5798 15.6683 18.5182 14.83 19.4547 14.83C20.392 14.83 20.3295 15.6683 20.3295 16.2438C20.3295 17.5171 18.5798 17.5171 18.5798 16.2438ZM18.0409 16.0417C18.0409 16.8193 18.4778 17.5902 19.2525 17.5902C19.702 17.5902 20.214 17.6239 20.573 17.0936C20.9502 16.5354 20.9493 15.4258 20.5451 14.8839C20.0446 14.2131 18.0409 13.9947 18.0409 16.0427V16.0417Z" fill="white"/>
<path id="Vector_37" fill-rule="evenodd" clip-rule="evenodd" d="M47.0505 17.187C46.0025 17.187 46.1083 16.3699 46.1083 15.7058C46.1083 14.5769 47.858 14.3912 47.858 15.9079C47.858 16.4584 47.7646 17.187 47.0505 17.187ZM45.5694 15.9079C45.5694 17.1898 46.0381 17.5911 47.1179 17.5911C48.4162 17.5911 48.3296 16.2938 48.3296 15.6384C48.3296 14.0716 45.5694 13.8455 45.5694 15.9079Z" fill="white"/>
<path id="Vector_38" fill-rule="evenodd" clip-rule="evenodd" d="M5.18612 14.8974V14.4932H4.78192V17.5228H5.25349C5.25349 16.2688 5.03696 15.2265 5.8165 14.9186C6.23322 14.754 6.73463 14.8686 6.73463 15.368V17.5228H7.20524V15.3007C7.20524 14.5153 6.71731 14.4249 6.12832 14.4249C5.55954 14.4249 5.50468 14.6828 5.18612 14.8964V14.8974Z" fill="white"/>
<path id="Vector_39" fill-rule="evenodd" clip-rule="evenodd" d="M64.2813 14.83L64.137 14.497C63.19 14.4865 63.4065 14.0746 63.4065 17.3217C63.4065 17.6095 63.6644 17.5238 64.2813 17.5238C64.2813 15.7973 64.0706 15.2343 65.2235 15.2343V14.4258C64.8155 14.4258 64.4084 14.3546 64.2813 14.83Z" fill="white"/>
<path id="Vector_40" fill-rule="evenodd" clip-rule="evenodd" d="M34.2631 14.8974C33.9811 14.4528 34.5576 14.4932 33.4557 14.4932V17.5228H34.1284C34.7395 17.5228 33.7521 15.2333 34.9358 15.2333H35.2727C35.2727 14.3584 35.3487 14.4249 34.8694 14.4249C34.5278 14.4249 34.3372 14.6221 34.2631 14.8964V14.8974Z" fill="white"/>
<path id="Vector_41" fill-rule="evenodd" clip-rule="evenodd" d="M41.1953 17.5228H42.0027V13.348H41.1953V17.5228Z" fill="white"/>
<path id="Vector_42" fill-rule="evenodd" clip-rule="evenodd" d="M44.224 14.2238V14.4932H43.8197V14.8974H44.224V17.3217C44.224 17.5768 44.3808 17.5238 44.7629 17.5238V14.8974H45.3009V14.4932H44.7629V13.9543C44.7629 13.4317 45.3009 14.1747 45.3009 13.348C44.9178 13.3393 44.224 13.0496 44.224 14.2238Z" fill="white"/>
<path id="Vector_43" fill-rule="evenodd" clip-rule="evenodd" d="M16.6281 14.0216V14.4932H16.2239V14.8974H16.5607V16.8501C16.5607 17.7009 17.092 17.6508 17.6377 17.5228V17.186C16.9178 17.186 17.0987 17.4718 17.0987 14.8964H17.6377V14.4922H17.0987V13.6838H16.6955C16.6599 13.8349 16.6281 13.8388 16.6281 14.0207V14.0216Z" fill="white"/>
<path id="Vector_44" fill-rule="evenodd" clip-rule="evenodd" d="M56.6081 13.551V17.5239C56.9892 17.5239 57.1461 17.5768 57.1461 17.3217V13.551C57.1461 13.2594 56.6081 13.2594 56.6081 13.551Z" fill="white"/>
<path id="Vector_45" fill-rule="evenodd" clip-rule="evenodd" d="M55.3291 17.5228H55.8007V13.5501C55.8007 13.3951 55.7535 13.348 55.5986 13.348H55.3291V17.5228Z" fill="white"/>
<path id="Vector_46" fill-rule="evenodd" clip-rule="evenodd" d="M49.4065 14.83V14.4932H49.0032V17.5228H49.4738C49.4738 15.9657 49.215 14.8964 50.416 14.8964V14.4249C49.5451 14.4249 49.8627 14.523 49.4065 14.8291V14.83Z" fill="white"/>
</g>
</g>
</svg>
