<svg width="46" height="65" viewBox="0 0 46 65" fill="none" xmlns="http://www.w3.org/2000/svg">
<path id="Vector" d="M45.9353 47.6803C45.275 36.0016 30.5831 30.693 29.177 30.1473C29.1192 30.1185 29.1192 30.0617 29.1481 30.0039L44.2992 14.7951V13.16C44.2992 12.9011 44.0692 12.6721 43.8113 12.6721H15.8911V3.51869V0.763336L5.58952 2.91527V4.46473H6.16408C6.16408 4.46473 8.68942 4.46473 8.68942 6.99007V12.6432H0.712086C0.568689 12.6432 0.425293 12.7866 0.425293 12.93V16.5169H8.71829C8.71829 16.5169 8.71829 20.3337 8.71829 24.781V36.0007C8.71829 42.1129 12.6497 46.3599 19.5366 45.7854C21.0004 45.6709 22.3488 45.0963 23.4969 44.3504C24.0137 44.0059 24.3294 43.4612 24.3294 42.8298V40.907C22.0908 42.3987 20.1968 42.313 20.1968 42.313C15.8352 42.313 15.9209 36.7744 15.9209 36.7744V16.5149H36.0081L21.5452 31.0924C21.5163 33.0153 21.4884 34.507 21.4884 34.5359C21.4884 34.5927 21.5173 34.6215 21.574 34.6215C34.8311 36.8601 38.418 45.4399 38.418 47.9363C38.418 47.9363 39.8529 60.0741 27.7151 60.9066C27.7151 60.9066 19.7666 61.2511 18.3606 58.0656C18.3028 57.9511 18.3606 57.8356 18.4751 57.7788C19.7945 57.1763 20.6848 55.9993 20.6848 54.421C20.6848 52.0679 19.2498 50.146 16.2366 50.146C13.7969 50.146 11.7883 52.0689 11.7883 54.421C11.7883 54.421 10.6402 64.6369 27.6853 64.3501C47.1412 64.0055 45.9353 47.6775 45.9353 47.6775V47.6803Z" fill="white"/>
</svg>
