<svg width="40" height="40" viewBox="0 0 40 40" fill="none" xmlns="http://www.w3.org/2000/svg">
<path d="M10.6754 13.2441C10.7327 11.7328 11.6011 10.3656 12.7171 9.24964C14.5743 7.39238 17.5376 7.64192 18.7168 9.75489L19.5821 11.3055C20.3631 12.7048 20.0496 14.5404 18.8196 15.7704M26.7559 29.3246C28.2672 29.2673 29.6344 28.3989 30.7504 27.2829C32.6076 25.4257 32.3581 22.4624 30.2451 21.2832L28.6945 20.4179C27.2952 19.6369 25.4596 19.9504 24.2296 21.1804" stroke="#2063F2" stroke-width="2"/>
<path opacity="0.5" d="M10.6754 13.2441C10.579 15.7883 11.2228 20.109 15.5569 24.4431C19.891 28.7772 24.2117 29.4211 26.7559 29.3246M24.2296 21.1804C24.2296 21.1804 22.7376 22.6723 20.0327 19.9673C17.3277 17.2624 18.8196 15.7704 18.8196 15.7704" stroke="#2063F2" stroke-width="2"/>
</svg>
