<svg width="40" height="40" viewBox="0 0 40 40" fill="none" xmlns="http://www.w3.org/2000/svg">
<path d="M28.8476 24.8936L31.1362 18.0278C33.1355 12.03 34.1351 9.03104 32.5521 7.44802C30.9691 5.865 27.9701 6.86463 21.9723 8.86392L15.1065 11.1525C10.2657 12.7661 7.84525 13.5729 7.15743 14.7561C6.50311 15.8816 6.50311 17.2717 7.15743 18.3972C7.84524 19.5803 10.2657 20.3871 15.1065 22.0007C15.8838 22.2598 16.2724 22.3894 16.5973 22.6068C16.9121 22.8176 17.1825 23.088 17.3933 23.4028C17.6107 23.7277 17.7403 24.1163 17.9994 24.8936C19.613 29.7344 20.4198 32.1549 21.6029 32.8427C22.7284 33.497 24.1185 33.497 25.244 32.8427C26.4272 32.1549 27.234 29.7344 28.8476 24.8936Z" stroke="white" stroke-width="2"/>
<path opacity="0.5" d="M25.6155 15.798C26.0082 15.4097 26.0117 14.7765 25.6233 14.3839C25.235 13.9912 24.6018 13.9877 24.2091 14.376L25.6155 15.798ZM18.2169 23.1151L25.6155 15.798L24.2091 14.376L16.8106 21.693L18.2169 23.1151Z" fill="white"/>
</svg>
