<svg width="92" height="31" viewBox="0 0 92 31" fill="none" xmlns="http://www.w3.org/2000/svg">
<g id="_2335873818032">
<path id="Vector" fill-rule="evenodd" clip-rule="evenodd" d="M74.3962 23.6407H70.2915V8.30385H74.8023C76.4778 8.30385 78.6452 9.00545 79.6942 10.4038C80.2408 11.1324 80.5575 11.7926 80.8106 12.805C81.4005 15.1581 81.3793 19.6746 79.6172 21.6437C79.2928 22.0065 79.1206 22.199 78.6731 22.5041C77.5115 23.2971 75.9581 23.6407 74.3962 23.6407ZM66.4573 5.28192V26.7531H76.0207C78.4306 26.7531 80.5758 25.7695 82.1897 24.1709C83.6622 22.711 84.6236 20.227 84.8546 18.0847C84.9143 17.5342 85.0336 16.2109 84.9653 15.7345C84.9383 15.5488 84.9508 15.3496 84.9528 15.16C84.9585 14.084 84.6091 12.3421 84.2925 11.3989C83.7747 9.85331 82.8576 8.29037 81.6007 7.23461C79.9377 5.83625 77.934 5.14621 75.5241 5.14621H66.593C66.4891 5.14621 66.4573 5.17798 66.4573 5.28192Z" fill="white"/>
<path id="Vector_2" fill-rule="evenodd" clip-rule="evenodd" d="M6.10328 15.5209C6.30154 15.4747 6.69326 15.2485 6.90018 15.1446L9.26092 13.9868C9.36486 13.9868 12.2136 15.441 12.5533 15.6104C13.1596 15.9135 15.4068 17.1445 15.9361 17.1445C16.6675 17.1445 17.1979 16.7624 17.8455 16.4381L22.7923 13.9878C22.9617 13.9878 25.6496 15.4516 25.9499 15.5218V15.6113C25.7016 15.6691 24.9817 16.0733 24.7017 16.2128C23.3995 16.8634 16.1276 20.5283 16.0266 20.5283C15.9082 20.5283 11.587 18.3311 11.0798 18.078L7.38138 16.2283C7.09651 16.0858 6.35447 15.6701 6.10328 15.6113V15.5218V15.5209ZM27.483 13.6048L28.7418 14.1947C28.4541 14.4045 27.8901 14.6566 27.5244 14.8453C26.6226 15.3092 27.0547 15.3034 25.0087 14.2553C24.6141 14.0532 24.1156 13.8309 23.7777 13.6201C23.6247 13.5865 23.7114 13.6509 23.6084 13.5297C23.7932 13.4084 25.4726 12.6366 25.5313 12.6404L27.484 13.6057L27.483 13.6048ZM8.27545 13.6192L5.81842 14.8838C5.06774 15.2697 5.29775 15.2418 4.55766 14.8607C4.19195 14.672 3.6049 14.4084 3.3181 14.2091L4.56922 13.6048C4.66739 13.4719 4.84929 13.418 5.03985 13.3266L6.49308 12.6443C6.5797 12.6289 8.23407 13.3901 8.44387 13.5287C8.33512 13.6567 8.4246 13.5826 8.27446 13.6192H8.27545ZM10.7036 11.1468H3.6665L5.65098 12.2285C5.39306 12.2882 4.60773 12.727 4.31227 12.8752C3.84358 13.1091 3.42782 13.317 2.95913 13.5518C1.97844 14.0417 0.911163 14.3487 0.911163 15.5671C0.911163 16.1936 1.23642 16.6363 1.61656 16.8952C1.80904 17.0261 2.06312 17.1339 2.26811 17.2359C2.50101 17.3523 2.71374 17.4592 2.96012 17.5814L4.97538 18.589C5.08798 18.6458 5.18132 18.693 5.30644 18.7546C5.3815 18.7911 5.41708 18.8046 5.4883 18.8431C5.5547 18.8787 5.52491 18.8595 5.57495 18.8941C5.63462 18.9345 5.61249 18.9172 5.65291 18.9576C5.83865 18.9788 6.35835 19.2521 6.521 19.3589L8.41112 20.3059C8.58339 20.3637 8.7008 20.431 8.87018 20.5148C8.94814 20.5533 9.01454 20.5821 9.08287 20.6168C9.23589 20.6957 9.18396 20.6428 9.26191 20.7554C9.44477 20.7987 10.6689 21.4368 10.9297 21.5677L15.0497 23.6272C16.2171 24.2152 16.6242 23.8177 17.8166 23.221L21.1244 21.5667C21.3949 21.4319 22.6104 20.7977 22.7923 20.7544C22.8702 20.6418 22.8182 20.6947 22.9713 20.6158C23.0396 20.5802 23.106 20.5523 23.184 20.5138C23.3533 20.4301 23.4708 20.3627 23.643 20.305L25.5332 19.358C25.6949 19.2512 26.2155 18.9778 26.4013 18.9566C26.5081 18.8527 26.8834 18.6862 27.048 18.6044L30.4087 16.9135C31.3634 16.2937 31.3971 14.928 30.4626 14.2582C30.1565 14.0388 29.5088 13.7607 29.1229 13.5682C28.6542 13.3343 28.2385 13.1264 27.7698 12.8916L26.4013 12.14L29.5589 10.5761L22.5979 10.5154L16.6743 13.4623C15.8572 13.8713 16.1498 13.8463 15.171 13.3564C14.7842 13.163 10.9201 11.1949 10.7055 11.1477L10.7036 11.1468Z" fill="white"/>
<path id="Vector_3" fill-rule="evenodd" clip-rule="evenodd" d="M41.2877 26.7531H45.0766V17.1907H54.8652V14.0783H45.0766V8.48477H56.0827C56.1866 8.48477 56.2183 8.45302 56.2183 8.34908V5.14621H41.2877V26.7531Z" fill="white"/>
<path id="Vector_4" fill-rule="evenodd" clip-rule="evenodd" d="M26.4022 18.9557C26.2165 18.9768 25.6968 19.2502 25.5341 19.357L26.2116 19.7333C26.4667 19.8565 27.9979 20.5465 28.1557 20.6716C28.1625 20.6765 28.1779 20.7053 28.1817 20.6976C28.1865 20.689 28.2 20.715 28.2077 20.7236L28.7302 20.9633C28.4146 21.1442 28.0181 21.3347 27.663 21.5166C26.9951 21.8592 26.921 22.0113 26.5899 21.8371C25.8691 21.455 25.1578 21.1105 24.489 20.7486C24.3331 20.7101 23.7181 20.4031 23.6421 20.303C23.4698 20.3608 23.3524 20.4282 23.183 20.5119C23.105 20.5504 23.0386 20.5792 22.9703 20.6139C22.8173 20.6928 22.8692 20.6399 22.7913 20.7525L25.9499 22.376C25.7016 22.4338 24.9817 22.838 24.7017 22.9775C24.2753 23.1902 23.8826 23.3875 23.4688 23.5945C22.644 24.0064 21.8405 24.4087 21.0032 24.8273C20.4998 25.0795 16.1546 27.2853 16.0266 27.2853C15.8899 27.2853 13.8381 26.2218 13.5455 26.0755C12.9787 25.7916 6.36218 22.4367 6.10233 22.376L9.26091 20.7525C9.18296 20.6399 9.23494 20.6928 9.08192 20.6139C9.01359 20.5783 8.94719 20.5504 8.86923 20.5119C8.69985 20.4282 8.58243 20.3608 8.41016 20.303C8.33413 20.4031 7.71913 20.7101 7.56322 20.7486C6.89436 21.1105 6.18414 21.455 5.46234 21.8371C5.17844 21.9872 5.17746 21.9256 4.8974 21.7784L3.31908 20.9575L3.84454 20.7236C3.884 20.6765 3.8676 20.6909 3.92438 20.6476L4.19675 20.51C4.31801 20.4532 4.42003 20.4051 4.53166 20.3521C4.78285 20.2337 6.3978 19.5274 6.51906 19.356C6.35737 19.2492 5.83671 18.9759 5.65097 18.9547C5.47293 19.0894 5.25156 19.1703 5.03406 19.2791C4.79634 19.3984 4.61061 19.4908 4.37194 19.6101C3.91287 19.8401 3.5077 20.0422 3.04864 20.2723C2.60978 20.4917 2.13434 20.7024 1.72628 20.9353C1.3519 21.149 0.974652 21.5888 0.917871 22.1114C0.771586 23.4491 1.86778 23.8014 2.71758 24.2267L14.5657 30.1503C15.991 30.8625 16.0333 30.8741 17.4529 30.1648C17.909 29.9367 18.3325 29.7249 18.7762 29.5036L26.6851 25.5491C27.1721 25.3056 30.3038 23.8013 30.5838 23.5396C31.4654 22.7148 31.2566 21.4916 30.351 20.9517C29.7783 20.61 26.6669 19.1587 26.3993 18.9557H26.4022Z" fill="white"/>
<path id="Vector_5" fill-rule="evenodd" clip-rule="evenodd" d="M25.4956 5.84683C25.769 5.95558 28.61 7.27696 28.7476 7.44057C28.3954 7.58782 26.9835 8.42607 26.7439 8.37506L24.7373 7.34433C24.7989 7.15955 24.7257 7.36358 24.8412 7.19708C24.8884 7.12971 24.9009 7.09506 24.9403 7.02481C25.0221 6.87756 25.0693 6.80924 25.1502 6.64756C25.2223 6.50223 25.4812 5.97579 25.4956 5.84683ZM3.30753 7.44057C3.42301 7.30295 6.39007 5.89977 6.60276 5.83241L6.99449 6.73802C7.05319 6.8458 7.26874 7.08448 7.3207 7.3116C7.19944 7.40399 5.53162 8.30576 5.34299 8.36543C5.09854 8.44242 3.66744 7.59167 3.30654 7.44057H3.30753ZM13.3367 4.34069L13.2395 4.44557C13.2308 4.45231 13.2202 4.45906 13.2116 4.46484C12.9575 4.63133 11.2598 5.3897 11.129 5.42531C10.8932 5.04998 10.5034 4.41768 10.4072 3.92974C10.4736 3.77672 10.4023 3.85563 10.5833 3.75265L11.8103 3.14344H10.3446C10.1829 3.13671 10.0616 3.23583 9.90861 3.31283C9.75367 3.39078 9.63047 3.45239 9.48803 3.52361C9.20509 3.66508 8.94235 3.79692 8.64593 3.94417L1.90913 7.3116C1.37115 7.57722 0.903439 8.02666 0.914025 8.84663C0.929424 9.98803 1.9332 10.3008 2.81091 10.7406C3.01879 10.8446 3.4567 11.0958 3.66843 11.1477H10.7055L6.10427 8.7552C6.31503 8.70612 8.23115 7.71389 8.58531 7.53778C9.41009 7.12587 10.2137 6.72358 11.051 6.30494C11.8912 5.88533 12.6765 5.4917 13.5167 5.0721C13.8266 4.91715 15.8899 3.84696 16.0276 3.84696C16.1642 3.84696 18.2151 4.91042 18.5086 5.05671C19.0755 5.34061 25.692 8.69553 25.9509 8.75617L22.5979 10.5154L29.5589 10.5761C30.0141 10.3961 30.5242 10.1363 30.8302 9.75707C31.1632 9.34517 31.2383 8.66283 30.9852 8.0979C30.7629 7.60323 30.325 7.40206 29.8457 7.16243C29.3597 6.91894 28.9064 6.69279 28.4329 6.45604L24.2234 4.35126C23.9799 4.22903 22.9741 3.6872 22.7951 3.67565H21.3246C21.4247 3.73147 21.5103 3.77094 21.622 3.83446C21.749 3.90664 21.8395 3.95188 21.955 4.00674C21.8837 4.41672 21.6297 4.85748 21.4295 5.22031C21.3544 5.35504 21.2736 5.42627 21.2351 5.56486C21.0118 5.5254 20.6134 5.30597 20.4007 5.20492C20.2688 5.1414 20.1485 5.08559 20.0042 5.01822C19.8136 4.92968 19.726 4.91908 19.6173 4.76799C19.2198 4.64191 18.4903 4.23771 18.0582 4.02694C17.5405 3.77383 17.0255 3.52457 16.4856 3.25991C16.0554 3.04818 16.1344 2.98177 15.6946 3.20023L13.3386 4.34358L13.3367 4.34069Z" fill="white"/>
<path id="Vector_6" fill-rule="evenodd" clip-rule="evenodd" d="M58.7889 26.753H62.3074V11.2363C62.3074 11.1323 62.2757 11.1006 62.1718 11.1006H58.7889V26.753Z" fill="white"/>
<path id="Vector_7" fill-rule="evenodd" clip-rule="evenodd" d="M87.8832 26.753H91.4018V11.2363C91.4018 11.1323 91.37 11.1006 91.2661 11.1006H87.8832V26.753Z" fill="white"/>
<path id="Vector_8" fill-rule="evenodd" clip-rule="evenodd" d="M10.3436 3.14248H11.8094L10.5823 3.75169C10.4004 3.85467 10.4726 3.77672 10.4062 3.92878C10.5024 4.41672 10.8922 5.04902 11.128 5.42435C11.2589 5.38874 12.9565 4.63038 13.2106 4.46388C13.2193 4.45811 13.2308 4.45135 13.2385 4.44461L13.3357 4.33973C13.0557 4.00481 12.6341 3.32825 12.5908 2.80278C12.9575 2.66804 14.7986 1.66905 15.4357 1.34184C15.8832 1.11182 16.0853 1.07046 16.5588 1.31106C17.6194 1.85 19.471 2.87976 20.3382 3.27723L20.265 3.43506C20.0802 3.95668 20.0331 4.30507 19.6154 4.76414C19.7241 4.91427 19.8117 4.92487 20.0023 5.01437C20.1457 5.08174 20.2669 5.13851 20.3988 5.20107C20.6115 5.30212 21.0099 5.52155 21.2332 5.56101C21.2717 5.42242 21.3525 5.3512 21.4276 5.21646C21.6287 4.85364 21.8818 4.41287 21.953 4.00289C21.8376 3.94803 21.7471 3.90279 21.6201 3.83061C21.5094 3.76709 21.4237 3.72762 21.3227 3.6718H22.7932C22.7374 3.60828 22.7874 3.65352 22.7153 3.60155C22.6652 3.56498 22.7018 3.5881 22.6287 3.54864C22.5613 3.5111 22.5199 3.49665 22.4468 3.46008L18.2372 1.35532C16.5761 0.524772 16.3028 0.111899 14.9295 0.799053L10.4495 3.04145C10.3696 3.09823 10.4004 3.0684 10.3436 3.14058V3.14248Z" fill="white"/>
<path id="Vector_9" fill-rule="evenodd" clip-rule="evenodd" d="M13.3367 4.34069L15.6926 3.19735C16.1315 2.97889 16.0525 3.0453 16.4837 3.25703C17.0246 3.52265 17.5385 3.77095 18.0563 4.02406C18.4884 4.23579 19.2179 4.63903 19.6154 4.7651C20.034 4.30604 20.0812 3.95764 20.265 3.43602L20.3381 3.2782C19.471 2.87977 17.6194 1.85097 16.5588 1.31202C16.0853 1.07142 15.8842 1.11279 15.4357 1.3428C14.7976 1.67002 12.9565 2.66901 12.5908 2.80374C12.6341 3.32921 13.0556 4.00578 13.3357 4.34069H13.3367Z" fill="white"/>
<path id="Vector_10" fill-rule="evenodd" clip-rule="evenodd" d="M58.7889 8.34908C58.7889 8.45302 58.8207 8.48477 58.9246 8.48477H62.1727C62.2767 8.48477 62.3084 8.45302 62.3084 8.34908V5.28192C62.3084 5.17798 62.2767 5.14621 62.1727 5.14621H58.7899V8.34908H58.7889Z" fill="white"/>
<path id="Vector_11" fill-rule="evenodd" clip-rule="evenodd" d="M87.8832 8.34908C87.8832 8.45302 87.915 8.48477 88.019 8.48477H91.2671C91.371 8.48477 91.4028 8.45302 91.4028 8.34908V5.28192C91.4028 5.17798 91.371 5.14621 91.2671 5.14621H87.8842V8.34908H87.8832Z" fill="white"/>
<path id="Vector_12" fill-rule="evenodd" clip-rule="evenodd" d="M3.30753 7.44056C3.66843 7.59166 5.09948 8.44241 5.34393 8.36542C5.53256 8.30575 7.19947 7.40398 7.32169 7.31159C7.26972 7.08447 7.05413 6.84483 6.99543 6.73801L6.60375 5.8324C6.39106 5.89977 3.42395 7.30294 3.30847 7.44056H3.30753Z" fill="white"/>
<path id="Vector_13" fill-rule="evenodd" clip-rule="evenodd" d="M25.4956 5.84683C25.4812 5.97579 25.2223 6.50223 25.1501 6.64756C25.0693 6.80924 25.0231 6.8766 24.9403 7.02481C24.9018 7.09506 24.8884 7.12971 24.8412 7.19708C24.7257 7.36358 24.7989 7.15955 24.7373 7.34433L26.7439 8.37506C26.9835 8.42607 28.3963 7.58782 28.7476 7.44057C28.61 7.27696 25.769 5.95558 25.4956 5.84683Z" fill="white"/>
<path id="Vector_14" fill-rule="evenodd" clip-rule="evenodd" d="M27.484 13.6047C27.0846 13.5788 23.9058 13.5422 23.7787 13.6192C24.1165 13.8299 24.6151 14.0523 25.0097 14.2544C27.0567 15.3034 26.6236 15.3091 27.5254 14.8443C27.8911 14.6557 28.4551 14.4035 28.7428 14.1937L27.484 13.6038V13.6047Z" fill="white"/>
<path id="Vector_15" fill-rule="evenodd" clip-rule="evenodd" d="M8.2764 13.6192C8.14936 13.5422 4.97055 13.5788 4.57116 13.6047L3.32004 14.2091C3.60683 14.4083 4.19389 14.672 4.5596 14.8607C5.29968 15.2427 5.06968 15.2697 5.82035 14.8837L8.27738 13.6192H8.2764Z" fill="white"/>
<path id="Vector_16" fill-rule="evenodd" clip-rule="evenodd" d="M3.84647 20.7236L7.37173 20.7024C7.53918 20.7092 7.48815 20.6793 7.56515 20.7486C7.72105 20.7101 8.33606 20.4031 8.41209 20.303L6.52192 19.356C6.40066 19.5274 4.78576 20.2337 4.53457 20.3521C4.42197 20.4051 4.32092 20.4541 4.19966 20.51L3.92729 20.6476C3.87051 20.6899 3.88686 20.6755 3.84741 20.7236H3.84647Z" fill="white"/>
<path id="Vector_17" fill-rule="evenodd" clip-rule="evenodd" d="M23.644 20.304C23.72 20.4041 24.335 20.7111 24.4909 20.7496C24.5717 20.6765 24.6074 20.7025 24.8672 20.7053C25.6497 20.713 27.7544 20.6659 28.2086 20.7236C28.2009 20.714 28.1875 20.688 28.1827 20.6976C28.1778 20.7063 28.1634 20.6765 28.1567 20.6717C27.9988 20.5465 26.4677 19.8565 26.2127 19.7333L25.5351 19.357L23.645 20.304H23.644Z" fill="white"/>
<path id="Vector_18" fill-rule="evenodd" clip-rule="evenodd" d="M28.2086 20.7236C27.7544 20.6659 25.6487 20.713 24.8672 20.7053C24.6074 20.7025 24.5717 20.6765 24.4909 20.7496C25.1598 21.1115 25.87 21.456 26.5918 21.8381C26.9229 22.0123 26.997 21.8602 27.6649 21.5176C28.02 21.3357 28.4165 21.1452 28.7322 20.9642L28.2096 20.7246L28.2086 20.7236Z" fill="white"/>
<path id="Vector_19" fill-rule="evenodd" clip-rule="evenodd" d="M7.56423 20.7496C7.48724 20.6794 7.53918 20.7101 7.37076 20.7034L3.8455 20.7246L3.32004 20.9584L4.89836 21.7793C5.17842 21.9266 5.1794 21.9882 5.4633 21.8381C6.18414 21.456 6.89536 21.1115 7.56423 20.7496Z" fill="white"/>
<path id="Vector_20" fill-rule="evenodd" clip-rule="evenodd" d="M4.57114 13.6047C4.97053 13.5788 8.14934 13.5422 8.27638 13.6192C8.42747 13.5826 8.33703 13.6567 8.44578 13.5287C8.23598 13.3901 6.58161 12.6289 6.495 12.6443L5.04176 13.3266C4.85121 13.4171 4.67026 13.4719 4.57114 13.6047Z" fill="white"/>
<path id="Vector_21" fill-rule="evenodd" clip-rule="evenodd" d="M23.7787 13.6192C23.9058 13.5422 27.0846 13.5788 27.484 13.6047L25.5313 12.6394C25.4726 12.6356 23.7932 13.4074 23.6084 13.5287C23.7114 13.65 23.6257 13.5855 23.7778 13.6192H23.7787Z" fill="white"/>
</g>
</svg>
