<svg width="64" height="55" viewBox="0 0 64 55" fill="none" xmlns="http://www.w3.org/2000/svg">
<g id="_2335873842416">
<path id="Vector" d="M4.07384 40.2204C3.95065 40.2204 3.84095 40.181 3.74471 40.1021C3.65617 40.0232 3.59554 39.9221 3.55993 39.7989L0.858471 30.6657C0.796877 30.455 0.805541 30.2798 0.884457 30.1393C0.972998 29.9988 1.1087 29.9285 1.29348 29.9285C1.39934 29.9285 1.49558 29.9593 1.58316 30.0209C1.68036 30.0739 1.75061 30.1749 1.79392 30.3241L4.23169 38.8115H3.92852L6.23442 30.5483C6.26041 30.4521 6.31816 30.3732 6.40573 30.3116C6.50294 30.25 6.60784 30.2192 6.72237 30.2192C6.82823 30.2192 6.92833 30.25 7.02554 30.3116C7.12274 30.3645 7.18336 30.4473 7.21031 30.5618L9.52968 38.8115H9.22653L11.6778 30.2721C11.7394 30.044 11.9068 29.9295 12.1782 29.9295C12.363 29.9295 12.49 30.0036 12.5603 30.1528C12.6306 30.2933 12.6392 30.4646 12.5863 30.6667L9.89829 39.7864C9.85402 39.9269 9.78377 40.0366 9.68753 40.1155C9.59995 40.1858 9.49408 40.2214 9.37089 40.2214C9.24771 40.2214 9.138 40.182 9.04176 40.103C8.95322 40.0241 8.89257 39.9231 8.85696 39.7999L6.56454 31.4318H6.88021L4.60027 39.7864C4.556 39.9183 4.48575 40.0232 4.38951 40.103C4.30193 40.182 4.19607 40.2214 4.07384 40.2214V40.2204ZM14.7546 40.2204C14.6054 40.2204 14.4822 40.1723 14.386 40.0761C14.2888 39.9789 14.2406 39.8567 14.2406 39.7065V30.4425C14.2406 30.2923 14.2888 30.1701 14.386 30.0729C14.4822 29.9767 14.6054 29.9285 14.7546 29.9285H20.9351C21.0756 29.9285 21.194 29.9767 21.2912 30.0729C21.3971 30.1614 21.45 30.2798 21.45 30.429C21.45 30.5608 21.3971 30.6754 21.2912 30.7716C21.195 30.8688 21.0766 30.9169 20.9351 30.9169H15.2685V34.5538H19.3933C19.5435 34.5538 19.6657 34.602 19.7629 34.6992C19.8591 34.7964 19.9072 34.9138 19.9072 35.0552C19.9072 35.1958 19.8591 35.3141 19.7629 35.4113C19.6657 35.5076 19.5435 35.5557 19.3933 35.5557H15.2685V39.2321H20.9351C21.0756 39.2321 21.194 39.2802 21.2912 39.3774C21.3971 39.4746 21.45 39.5882 21.45 39.72C21.45 39.8701 21.3971 39.9924 21.2912 40.0896C21.195 40.1771 21.0766 40.2214 20.9351 40.2214H14.7546V40.2204ZM23.9445 40.2204C23.7771 40.2204 23.6366 40.1762 23.523 40.0886C23.4171 39.9914 23.3651 39.8644 23.3651 39.7065V30.4425C23.3651 30.2923 23.4133 30.1701 23.5095 30.0729C23.6067 29.9767 23.7299 29.9285 23.8791 29.9285H27.0819C27.6084 29.9285 28.0838 30.0431 28.5053 30.2712C28.9355 30.4915 29.2743 30.7947 29.5197 31.1806C29.7747 31.5675 29.9018 32.015 29.9018 32.5251C29.9018 32.9996 29.7747 33.4211 29.5197 33.7897C29.2647 34.1583 28.9317 34.4393 28.5178 34.6337C29.1068 34.7915 29.5813 35.0899 29.9412 35.5297C30.3012 35.9599 30.4821 36.5094 30.4821 37.1764C30.4821 37.774 30.3454 38.3005 30.0731 38.7576C29.8007 39.2147 29.4235 39.5747 28.9394 39.8384C28.4649 40.0934 27.9202 40.2204 27.3052 40.2204H23.9445ZM24.393 39.2321H27.3052C27.7268 39.2321 28.1002 39.1483 28.4255 38.9818C28.7507 38.8144 29.0048 38.5776 29.1896 38.2706C29.3744 37.9627 29.4668 37.5989 29.4668 37.1764C29.4668 36.7808 29.3744 36.4382 29.1896 36.1485C29.0048 35.8502 28.7507 35.6221 28.4255 35.4633C28.1002 35.2968 27.7268 35.2131 27.3052 35.2131H24.393V39.2321ZM24.393 34.2247H27.081C27.6074 34.2247 28.0424 34.0755 28.386 33.7762C28.7286 33.4779 28.8999 33.0602 28.8999 32.5241C28.8999 31.9967 28.7286 31.5973 28.386 31.325C28.0434 31.0526 27.6084 30.916 27.081 30.916H24.393V34.2237V34.2247ZM35.1632 40.2868C34.5482 40.2868 33.9949 40.155 33.5031 39.8913C33.0199 39.6189 32.6379 39.2503 32.3569 38.7845C32.0758 38.3187 31.9353 37.7914 31.9353 37.2033C31.9353 37.0542 31.9796 36.9262 32.0672 36.8213C32.1557 36.7154 32.2741 36.6625 32.4233 36.6625C32.5724 36.6625 32.6908 36.7154 32.7793 36.8213C32.8679 36.9262 32.9112 37.0542 32.9112 37.2033C32.9112 37.6075 33.0084 37.9723 33.2009 38.2976C33.3943 38.6142 33.658 38.8683 33.992 39.0617C34.3346 39.2465 34.7128 39.3379 35.1257 39.3379C35.8109 39.3379 36.347 39.1493 36.7339 38.7711C37.1207 38.3842 37.3132 37.8885 37.3132 37.2822C37.3132 36.852 37.2208 36.4786 37.037 36.162C36.8522 35.8367 36.602 35.5865 36.2854 35.4113C35.9687 35.2266 35.6136 35.1351 35.2181 35.1351C35.0776 35.1351 34.9592 35.087 34.862 34.9898C34.7648 34.8926 34.7167 34.7704 34.7167 34.6212C34.7167 34.4807 34.7648 34.3623 34.862 34.2651C34.9582 34.1679 35.0766 34.1208 35.2181 34.1208C35.526 34.1208 35.8061 34.0457 36.0621 33.8965C36.3258 33.7377 36.5365 33.5318 36.6944 33.2767C36.8522 33.0217 36.9321 32.7407 36.9321 32.4337C36.9321 31.9679 36.7733 31.581 36.4576 31.274C36.142 30.9574 35.7195 30.7995 35.1931 30.7995C34.8245 30.7995 34.4943 30.8746 34.2047 31.0237C33.915 31.1643 33.6869 31.3577 33.5194 31.6031C33.3606 31.8399 33.2817 32.1122 33.2817 32.4202C33.2817 32.5694 33.2336 32.6964 33.1374 32.8023C33.0488 32.8995 32.9353 32.9476 32.7948 32.9476C32.6456 32.9476 32.5272 32.8995 32.4387 32.8023C32.3501 32.6964 32.3068 32.5732 32.3068 32.4337C32.3068 31.9505 32.43 31.5155 32.6754 31.1287C32.9304 30.7331 33.2731 30.4261 33.7033 30.2057C34.1335 29.9776 34.63 29.8631 35.1921 29.8631C35.7012 29.8631 36.1583 29.9776 36.5625 30.2057C36.9754 30.4251 37.3007 30.7331 37.5384 31.1287C37.7848 31.5146 37.907 31.9496 37.907 32.4337C37.907 32.732 37.8319 33.0217 37.6828 33.3037C37.5423 33.5847 37.3536 33.8397 37.1159 34.0678C36.8782 34.2872 36.6193 34.4586 36.3383 34.5817C36.7858 34.7136 37.1592 34.9157 37.4585 35.1881C37.7579 35.4604 37.9773 35.7809 38.1178 36.1495C38.2583 36.5094 38.3286 36.8877 38.3286 37.2832C38.3286 37.8626 38.188 38.3813 37.907 38.8384C37.6347 39.2869 37.2574 39.642 36.7733 39.9057C36.2902 40.1608 35.7541 40.2878 35.1651 40.2878L35.1632 40.2868ZM1.30598 54.1993C1.10387 54.1993 0.958549 54.1165 0.870971 53.9491C0.78243 53.7816 0.773766 53.6199 0.844984 53.4611L4.71961 44.2625C4.81681 44.0258 4.98332 43.9064 5.22007 43.9064C5.44816 43.9064 5.61079 44.0248 5.70799 44.2625L9.5961 53.4746C9.67502 53.6411 9.66153 53.8038 9.55663 53.9626C9.45943 54.1204 9.31893 54.1993 9.13511 54.1993C9.02925 54.1993 8.93301 54.1733 8.84543 54.1204C8.76651 54.0675 8.7001 53.9885 8.64813 53.8836L5.02374 45.094H5.43276L1.78236 53.8836C1.73809 53.9895 1.67266 54.0684 1.58412 54.1204C1.50521 54.1733 1.41281 54.1993 1.3079 54.1993H1.30598ZM2.17599 51.7481L2.57155 50.8656H7.92151L8.31707 51.7481H2.17599ZM10.8357 54.1993C10.6952 54.1993 10.572 54.1512 10.4671 54.0549C10.3699 53.9491 10.3218 53.8269 10.3218 53.6864V44.4223C10.3218 44.2722 10.3699 44.1499 10.4671 44.0527C10.5633 43.9565 10.6865 43.9084 10.8357 43.9084H17.0162C17.1654 43.9084 17.2886 43.9565 17.3848 44.0527C17.482 44.1413 17.5301 44.2596 17.5301 44.4088C17.5301 44.5407 17.482 44.6552 17.3848 44.7514C17.2886 44.8486 17.1654 44.8967 17.0162 44.8967H11.3496V48.5337H15.4744C15.6246 48.5337 15.7468 48.5818 15.844 48.679C15.9402 48.7762 15.9884 48.8946 15.9884 49.0351C15.9884 49.1756 15.9402 49.294 15.844 49.3912C15.7468 49.4874 15.6246 49.5355 15.4744 49.5355H11.3496V53.6873C11.3496 53.8278 11.3015 53.951 11.2043 54.0559C11.108 54.1531 10.9848 54.2003 10.8357 54.2003V54.1993ZM19.889 54.1993C19.7398 54.1993 19.6166 54.1512 19.5204 54.0549C19.4232 53.9577 19.375 53.8355 19.375 53.6864V44.4223C19.375 44.2722 19.4232 44.1499 19.5204 44.0527C19.6176 43.9565 19.7398 43.9084 19.889 43.9084H22.3537C22.9946 43.9084 23.5663 44.0441 24.0667 44.3174C24.5672 44.5811 24.9589 44.9545 25.2399 45.4376C25.5306 45.9121 25.6749 46.4616 25.6749 47.0852C25.6749 47.6829 25.5306 48.2141 25.2399 48.6799C24.9589 49.1457 24.5681 49.5105 24.0667 49.7742C23.5663 50.0379 22.9946 50.1697 22.3537 50.1697H20.4039V53.6883C20.4039 53.8374 20.3557 53.9606 20.2585 54.0569C20.1623 54.1541 20.0391 54.2012 19.8899 54.2012L19.889 54.1993ZM25.3977 54.1993C25.2832 54.1993 25.1918 54.1772 25.1215 54.1339C25.0599 54.0896 25.0032 54.0242 24.9502 53.9366L22.4201 49.9041L23.4479 49.6404L25.8068 53.4092C25.9386 53.6199 25.9598 53.8047 25.8722 53.9626C25.7933 54.1204 25.6345 54.1993 25.3977 54.1993ZM20.4029 49.1785H22.3527C22.8012 49.1785 23.1967 49.0899 23.5393 48.9148C23.8906 48.73 24.1678 48.4798 24.3689 48.1631C24.571 47.8465 24.6721 47.4866 24.6721 47.0824C24.6721 46.6522 24.571 46.2739 24.3689 45.9487C24.1668 45.6147 23.8897 45.3558 23.5393 45.171C23.1967 44.9862 22.8012 44.8948 22.3527 44.8948H20.4029V49.1775V49.1785ZM28.0357 54.1993C27.8865 54.1993 27.7633 54.1512 27.6671 54.0549C27.5699 53.9577 27.5218 53.8355 27.5218 53.6864V44.4223C27.5218 44.2722 27.5699 44.1499 27.6671 44.0527C27.7643 43.9565 27.8865 43.9084 28.0357 43.9084C28.1848 43.9084 28.308 43.9565 28.4043 44.0527C28.5015 44.1499 28.5496 44.2722 28.5496 44.4223V53.6864C28.5496 53.8355 28.5015 53.9587 28.4043 54.0549C28.308 54.1521 28.1848 54.1993 28.0357 54.1993ZM31.7034 54.1993C31.5629 54.1993 31.4397 54.1512 31.3348 54.0549C31.2385 53.9491 31.1904 53.8269 31.1904 53.6864V44.4223C31.1904 44.2818 31.2385 44.1634 31.3348 44.0662C31.4406 43.9603 31.5638 43.9084 31.7034 43.9084C31.8439 43.9084 31.9623 43.9613 32.0595 44.0662C32.1653 44.1634 32.2173 44.2818 32.2173 44.4223V48.9032L37.0274 44.0931C37.0976 44.0229 37.1631 43.9748 37.2247 43.9478C37.2863 43.9218 37.3565 43.9084 37.4355 43.9084C37.5933 43.9084 37.7117 43.9565 37.7915 44.0527C37.8705 44.1499 37.906 44.2683 37.8974 44.4088C37.8974 44.5407 37.8445 44.6677 37.7396 44.7909L34.1286 48.4018L37.779 53.3832C37.8579 53.4977 37.8887 53.6199 37.8714 53.7518C37.8628 53.875 37.8137 53.9799 37.7261 54.0684C37.6385 54.156 37.5327 54.2003 37.4095 54.2003C37.216 54.2003 37.0717 54.1262 36.9745 53.977L33.3895 49.1275L32.2164 50.3141V53.6873C32.2164 53.8278 32.1634 53.951 32.0585 54.0559C31.9613 54.1531 31.8429 54.2003 31.7024 54.2003L31.7034 54.1993ZM39.2582 54.1993C39.0561 54.1993 38.9108 54.1165 38.8232 53.9491C38.7347 53.7816 38.726 53.6199 38.7972 53.4611L42.6719 44.2625C42.7691 44.0258 42.9356 43.9064 43.1723 43.9064C43.4004 43.9064 43.563 44.0248 43.6602 44.2625L47.5483 53.4746C47.6273 53.6411 47.6138 53.8038 47.5089 53.9626C47.4126 54.1204 47.2721 54.1993 47.0873 54.1993C46.9815 54.1993 46.8853 54.1733 46.7977 54.1204C46.7188 54.0675 46.6524 53.9885 46.5994 53.8836L42.976 45.094H43.385L39.7346 53.8836C39.6903 53.9895 39.6249 54.0684 39.5364 54.1204C39.4574 54.1733 39.3651 54.1993 39.2602 54.1993H39.2582ZM40.1282 51.7481L40.5238 50.8656H45.8747L46.2703 51.7481H40.1292H40.1282Z" fill="white"/>
<path id="Vector_2" fill-rule="evenodd" clip-rule="evenodd" d="M0.555298 22.7981C0.555298 23.6768 1.63224 24.1012 2.23085 23.4583L9.10816 16.0777C9.48542 15.6725 10.1254 15.6658 10.5104 16.0632L17.764 23.5421C18.3693 24.1657 19.427 23.7374 19.427 22.8684V1.88998C19.427 1.35489 18.9939 0.921814 18.4588 0.921814H1.52251C0.988383 0.921814 0.555298 1.35489 0.555298 1.88998V22.7981Z" fill="white"/>
<path id="Vector_3" fill-rule="evenodd" clip-rule="evenodd" d="M23.7106 24.0146C22.8888 24.0146 22.4412 23.0541 22.9696 22.4247L30.3685 13.6043C30.6611 13.2559 30.6717 12.7526 30.3945 12.3926L22.8339 2.55981C22.3441 1.92366 22.7983 1.00168 23.6009 1.00168H38.6519C39.187 1.00168 39.6201 1.43476 39.6201 1.96986V23.0464C39.6201 23.5815 39.187 24.0146 38.6519 24.0146H23.7106Z" fill="white"/>
<path id="Vector_4" d="M42.9433 6.11493L45.3262 2.11519C45.6755 1.53005 46.3069 1.17108 46.9892 1.17108H54.9405C55.4362 1.17108 55.9126 1.36164 56.2725 1.70136L62.9063 7.98968C63.1055 8.17831 63.2624 8.40736 63.3664 8.66144L63.8322 9.799C64.1526 10.5834 63.9265 11.4851 63.273 12.025L61.8602 13.1915C61.5599 13.4398 61.3415 13.7727 61.2327 14.1462L59.7747 19.1911C59.7371 19.32 59.6871 19.4442 59.6245 19.5625L58.0674 22.4911C57.7315 23.1234 57.0742 23.518 56.3581 23.518H54.9319C53.9704 23.518 53.1543 22.8116 53.0167 21.8608L52.0379 15.1124C51.9898 14.7804 51.856 14.4657 51.6501 14.202L49.8321 11.8653C49.4654 11.3937 48.9015 11.1184 48.3048 11.1184H46.199C45.5975 11.1184 45.0297 10.8384 44.6631 10.361L43.0703 8.28515C42.5881 7.6567 42.5381 6.79631 42.9433 6.11589V6.11493Z" fill="white"/>
</g>
</svg>
