<svg width="128" height="26" viewBox="0 0 128 26" fill="none" xmlns="http://www.w3.org/2000/svg">
<path d="M34.8666 8.42883H36.2514L40.1251 17.4206H38.2965L37.4583 15.3629H33.5596L32.7464 17.4206H30.9554L34.8675 8.42883H34.8666ZM36.8982 13.9915L35.5143 10.3344L34.1044 13.9915H36.8982Z" fill="white"/>
<path d="M41.8411 8.42883H43.6831L46.1344 15.2234L48.6616 8.42883H50.3891L46.7561 17.4206H45.3721L41.8411 8.42883Z" fill="white"/>
<path d="M56.1077 8.42883H57.4926L61.3663 17.4206H59.5377L58.6995 15.3629H54.8008L53.9875 17.4206H52.1965L56.1087 8.42883H56.1077ZM58.1394 13.9915L56.7554 10.3344L55.3455 13.9915H58.1394Z" fill="white"/>
<path d="M64.905 8.42883H66.5055V15.9721H70.3281V17.4206H64.905V8.42883Z" fill="white"/>
<path d="M76.9398 8.42883H78.3247L82.1984 17.4206H80.3698L79.5316 15.3629H75.6319L74.8187 17.4206H73.0286L76.9398 8.42883ZM78.9724 13.9915L77.5875 10.3344L76.1776 13.9915H78.9714H78.9724Z" fill="white"/>
<path d="M85.7371 8.42883H87.8582L92.2141 15.1089H92.24V8.42883H93.8396V17.4206H91.8079L87.3626 10.524H87.3376V17.4206H85.7371V8.42883Z" fill="white"/>
<path d="M104.558 10.5364C104.228 10.1803 103.906 9.94363 103.593 9.82525C103.287 9.70688 102.979 9.6472 102.666 9.6472C102.2 9.6472 101.776 9.73185 101.395 9.90124C101.023 10.062 100.701 10.291 100.43 10.5875C100.159 10.8752 99.9479 11.214 99.7949 11.6038C99.6505 11.9935 99.5793 12.4122 99.5793 12.8616C99.5793 13.3438 99.6515 13.7884 99.7949 14.1955C99.9479 14.6016 100.159 14.9529 100.43 15.2493C100.701 15.5457 101.023 15.7786 101.395 15.948C101.776 16.1174 102.2 16.2021 102.666 16.2021C103.03 16.2021 103.381 16.1174 103.72 15.948C104.067 15.77 104.388 15.4909 104.685 15.1098L106.005 16.05C105.599 16.6092 105.103 17.0153 104.519 17.2694C103.935 17.5235 103.312 17.6505 102.652 17.6505C101.958 17.6505 101.318 17.5408 100.734 17.3204C100.158 17.0914 99.6582 16.7747 99.2358 16.3676C98.821 15.9528 98.4947 15.4572 98.2579 14.8817C98.0212 14.3061 97.9019 13.6671 97.9019 12.9636C97.9019 12.2437 98.0202 11.5922 98.2579 11.008C98.4947 10.4152 98.821 9.91089 99.2358 9.49706C99.6582 9.08226 100.159 8.76468 100.734 8.54429C101.318 8.31524 101.957 8.20068 102.652 8.20068C103.261 8.20068 103.825 8.31041 104.341 8.5308C104.866 8.74253 105.353 9.10633 105.802 9.62314L104.557 10.5374L104.558 10.5364Z" fill="white"/>
<path d="M109.62 8.42883H111.22V12.0099H115.423V8.42883H117.024V17.4206H115.423V13.4574H111.22V17.4206H109.62V8.42883Z" fill="white"/>
<path d="M121.574 8.42883H127.53V9.87629H123.174V12.086H127.301V13.5343H123.174V15.9721H127.759V17.4206H121.574V8.42883Z" fill="white"/>
<path fill-rule="evenodd" clip-rule="evenodd" d="M26.2185 12.9261C26.2185 20.0498 20.444 25.8242 13.3204 25.8242C6.19764 25.8242 0.422302 20.0498 0.422302 12.9261C0.422302 5.80242 6.19668 0.0280151 13.3204 0.0280151C20.444 0.0280151 26.2185 5.80242 26.2185 12.9261ZM9.66517 18.0586H7.16197C6.63554 18.0586 6.37667 18.0586 6.21787 17.9576C6.04656 17.8469 5.94263 17.663 5.93012 17.46C5.92049 17.2732 6.05041 17.0452 6.31026 16.588L12.4908 5.69461C12.7535 5.2317 12.8873 5.00076 13.0548 4.91511C13.2357 4.82368 13.4513 4.82368 13.6312 4.91511C13.7987 5.00076 13.9325 5.2317 14.1952 5.69461L15.4656 7.91199L15.4723 7.92355C15.7562 8.42015 15.9006 8.67134 15.9631 8.936C16.0324 9.22472 16.0324 9.52882 15.9631 9.81658C15.8996 10.0822 15.7572 10.3363 15.4684 10.8396L12.2223 16.5784L12.2136 16.5929C11.9278 17.0933 11.7825 17.3464 11.5813 17.5379C11.3629 17.7477 11.1001 17.8988 10.8114 17.9845C10.5487 18.0576 10.2542 18.0576 9.66421 18.0576L9.66517 18.0586ZM15.9862 18.0586H19.5731C20.1024 18.0586 20.368 18.0586 20.5268 17.9537C20.6981 17.843 20.8059 17.6563 20.8155 17.4532C20.8252 17.2723 20.6972 17.0529 20.4489 16.6236C20.4402 16.6092 20.4315 16.5938 20.4229 16.5794L18.6261 13.5055L18.6059 13.4708C18.3537 13.0435 18.2257 12.8279 18.0621 12.7452C17.8812 12.6538 17.6695 12.6538 17.4885 12.7452C17.324 12.8308 17.1912 13.056 16.9275 13.5093L15.1374 16.5823L15.1316 16.5929C14.8698 17.0452 14.739 17.2713 14.7476 17.4571C14.7601 17.6602 14.865 17.8469 15.0363 17.9576C15.1913 18.0586 15.4579 18.0586 15.9872 18.0586H15.9862Z" fill="white"/>
</svg>
