<svg width="43" height="44" viewBox="0 0 43 44" fill="none" xmlns="http://www.w3.org/2000/svg">
<g id="_2335877520032">
<path id="Vector" fill-rule="evenodd" clip-rule="evenodd" d="M21.1656 13.89C22.0029 13.4878 21.3157 14.0026 21.6391 13.3251L23.0086 13.3858C23.5667 13.4868 23.125 13.5137 23.6447 13.6841C24.3328 13.9093 24.1615 13.8265 24.278 13.4454L18.005 7.08299L21.1309 4.037L25.6667 8.49774C26.0401 8.87115 29.7761 12.8497 30.241 12.8497C30.7482 12.714 30.8781 12.432 31.2486 12.0711C31.6894 11.6409 31.8607 11.6919 31.878 10.9152C31.2015 10.7343 27.0603 6.32078 26.4848 5.74526L22.4677 1.72818C22.023 1.28355 21.6602 0.672453 21.0174 0.500183C20.387 0.922677 12.9505 8.49193 11.607 9.8364C11.145 10.2974 10.4829 10.6958 10.3049 11.3618C10.3155 11.3763 11.7639 12.8497 12.0901 12.8497C12.7936 12.662 13.6107 11.5524 14.1362 11.0269C14.7367 10.4264 15.4537 9.56791 16.1072 9.13002C16.9416 9.35233 20.1839 13.2375 21.1656 13.89Z" fill="white"/>
<path id="Vector_2" fill-rule="evenodd" clip-rule="evenodd" d="M28.7541 31.2893C29.3065 31.3441 29.1516 31.3913 29.807 31.4336L31.3853 31.6377C31.7279 31.6935 31.6124 31.7358 32.0763 31.5106C32.0984 31.5 32.1398 31.4645 32.1763 31.4529C32.3457 31.6906 32.3313 32.1141 32.9877 31.5376C33.3091 31.2556 33.1176 31.3605 33.3649 31.1478C33.592 30.9524 33.5411 30.913 33.9616 30.8398C34.5352 30.4886 36.639 28.249 37.4205 27.4685C37.6543 27.2356 37.7833 27.1153 38.0181 26.8824C38.4108 26.4927 38.3579 26.612 38.5734 26.1183C37.6447 26.1982 38.3338 26.1299 37.8882 26.0221C36.5072 25.6881 36.6794 26.1029 36.3878 26.5783C36.5216 26.0577 36.3359 26.0519 35.82 26.0086L35.7469 25.4254L32.2871 28.8804C31.8771 29.2914 31.5835 29.7995 30.9849 29.9593L28.0438 27.098C29.1034 25.4841 31.6673 23.6065 31.878 22.8173C31.5114 22.2707 30.7443 21.6181 30.241 21.1812C29.6347 21.5873 26.8668 24.4813 25.9641 25.384C25.5021 25.845 25.1046 26.5081 24.4387 26.6861C24.4579 27.5523 25.4222 28.1903 26.4097 29.1787L28.1112 30.7503C28.423 31.0121 28.4221 31.0814 28.7522 31.2893H28.7541Z" fill="white"/>
<path id="Vector_3" fill-rule="evenodd" clip-rule="evenodd" d="M9.9324 21.4786L9.84866 21.9319C9.85059 21.9666 9.86119 22.0176 9.86408 22.0503C9.86889 22.0849 9.89004 22.1417 9.89486 22.1706C9.89967 22.1995 9.91607 22.2533 9.93339 22.2918L11.018 22.2303C11.8351 21.955 11.325 21.9223 11.7119 21.7086C11.146 23.1686 12.6185 22.2514 12.9822 22.1427C13.9629 21.188 15.0899 19.6298 16.1072 18.9485C17.6595 19.7694 18.8231 21.8453 20.2734 22.8163C21.1136 22.5921 21.2175 21.7019 22.0586 21.4776C22.0019 20.7982 21.5534 20.5961 20.7555 19.805L18.6951 17.6993C18.6739 17.6781 18.6412 17.6473 18.6191 17.6261C17.9742 17.0005 16.7308 15.5435 16.1072 15.377L9.9324 21.4767V21.4786Z" fill="white"/>
<path id="Vector_4" fill-rule="evenodd" clip-rule="evenodd" d="M28.7541 31.2893L29.2247 31.8715C28.8474 32.422 26.6147 34.7251 26.0757 34.8694C25.1557 34.2525 24.6283 33.1573 23.6293 32.6376C23.3993 33.1823 23.6591 32.8667 23.5465 33.1852L22.9508 32.5818C22.5909 32.7762 22.6159 32.7512 22.3869 32.8888C21.6737 33.3171 21.7517 32.9889 20.5699 33.0158C21.1617 34.1601 23.3463 35.6182 24.1403 36.8029C23.9902 37.364 23.5908 37.516 23.2472 37.9635C23.7775 38.1801 23.6803 37.9703 24.0451 38.3831L24.4367 37.8038L25.0171 38.1502C25.7851 38.5419 25.3318 37.9356 25.7264 38.695C25.9487 38.2696 25.5974 38.5862 26.1893 38.2272L26.7273 38.1425L33.9587 30.8389C33.5382 30.912 33.5892 30.9515 33.3621 31.1469C33.1147 31.3595 33.3063 31.2546 32.9848 31.5366C32.3285 32.1131 32.3429 31.6896 32.1735 31.4519C32.1369 31.4644 32.0955 31.4991 32.0734 31.5097C31.6095 31.7349 31.725 31.6916 31.3824 31.6367L29.8041 31.4327C29.1487 31.3913 29.3036 31.3432 28.7512 31.2883L28.7541 31.2893Z" fill="white"/>
<path id="Vector_5" fill-rule="evenodd" clip-rule="evenodd" d="M35.7469 25.4264L35.82 26.0096C36.3359 26.0529 36.5226 26.0587 36.3878 26.5793C36.6794 26.1029 36.5072 25.6891 37.8882 26.023C38.3338 26.1308 37.6447 26.1992 38.5734 26.1193C38.9286 26.0702 38.4917 26.2319 38.8275 26.024L39.6523 25.2368C40.0344 24.8528 40.3106 24.5785 40.6936 24.1955C41.3047 23.5843 42.3056 22.723 42.7397 22.0753C42.2479 21.341 40.6127 19.8743 39.8755 19.1371C39.3433 18.6049 38.9199 18.1814 38.3877 17.6492C36.5283 15.7899 36.9951 15.9342 35.9346 17.0554C35.6073 17.4019 35.4091 17.526 35.1521 17.91L39.1326 21.9637L35.7469 25.4273V25.4264Z" fill="white"/>
<path id="Vector_6" fill-rule="evenodd" clip-rule="evenodd" d="M3.1629 22.1177C3.11767 22.1388 2.93865 22.2572 2.90304 22.2687L2.62682 22.3053C1.93774 22.2601 2.8068 22.2187 2.03495 22.1359C1.88482 23.1253 1.34685 22.8163 0.632751 23.159L3.90585 26.536L5.05208 26.6573C8.96424 26.8979 8.14426 26.458 8.81602 26.3878L12.9823 22.1436C12.6185 22.2524 11.146 23.1695 11.7119 21.7096C11.325 21.9232 11.8361 21.9559 11.018 22.2312L9.9334 22.2928C9.91607 22.2543 9.89968 22.2004 9.89486 22.1715C9.89005 22.1436 9.8689 22.0859 9.86408 22.0512C9.86024 22.0175 9.84963 21.9675 9.84867 21.9328L9.93241 21.4796L6.32341 25.0866C5.29268 24.3841 4.07334 22.5546 3.1629 22.1186V22.1177Z" fill="white"/>
<path id="Vector_7" fill-rule="evenodd" clip-rule="evenodd" d="M15.6606 38.0838C15.9657 38.6555 19.3947 42.02 20.336 42.8409C21.5842 43.9304 21.7613 43.1268 24.0296 40.8574C24.9593 39.9287 25.8274 39.1155 26.7301 38.1425L26.1922 38.2272C25.6013 38.5862 25.9516 38.2696 25.7293 38.695C25.3347 37.9356 25.787 38.5429 25.02 38.1502L24.4396 37.8038L24.0479 38.3831C23.6832 37.9712 23.7794 38.1801 23.2501 37.9635L21.2011 39.9614L18.4708 37.3976L18.5921 37.797C18.2918 37.9626 18.1109 37.6295 17.7452 38.2513L17.1504 37.9558L16.7038 38.387C15.9445 38.1146 16.8752 37.8211 15.6625 38.0838H15.6606Z" fill="white"/>
<path id="Vector_8" fill-rule="evenodd" clip-rule="evenodd" d="M3.90683 26.537C4.9212 27.0749 9.67834 32.678 10.4531 32.8253C10.8977 32.8965 11.325 32.9908 11.6436 33.1602C11.6763 33.1275 11.8649 32.8676 11.8658 32.8667C12.3884 32.3739 12.0997 32.6963 12.1825 32.7338C12.4616 32.5914 12.6877 32.7637 12.834 33.0149C13.4144 32.4807 13.0477 33.0726 13.6482 32.6376C13.4981 32.1833 12.7763 31.6136 12.4241 31.2614C11.9169 30.7542 11.5184 30.3558 11.0112 29.8476C10.2885 29.1248 8.7044 27.7053 8.22128 26.9835L8.817 26.3878C8.14524 26.458 8.96522 26.8979 5.05306 26.6573L3.90683 26.536V26.537Z" fill="white"/>
<path id="Vector_9" fill-rule="evenodd" clip-rule="evenodd" d="M20.5708 33.0158C21.7526 32.9889 21.6746 33.3171 22.3878 32.8888C22.6168 32.7512 22.5918 32.7762 22.9518 32.5818L23.5475 33.1852C23.6601 32.8667 23.4002 33.1823 23.6303 32.6376C23.6187 32.6077 23.5947 32.5308 23.5879 32.5519L23.3656 32.2267C23.227 32.0659 23.0769 31.9408 22.9162 31.782L18.824 27.6908C18.3371 27.2039 17.6653 26.2685 17.0013 26.0914L15.3296 27.6928C15.524 28.326 17.2977 29.8842 17.8578 30.4433L20.5727 33.0168L20.5708 33.0158Z" fill="white"/>
<path id="Vector_10" fill-rule="evenodd" clip-rule="evenodd" d="M0.63368 23.1599C1.34778 22.8172 1.88579 23.1262 2.03593 22.1368C2.80777 22.2196 1.93871 22.26 2.62779 22.3062L2.90401 22.2696C2.93962 22.2581 3.1186 22.1397 3.16383 22.1186C3.84714 20.904 6.3263 19.1861 7.18091 17.909C6.99902 17.6376 5.78444 16.272 5.39563 16.272C4.75949 16.4423 4.18401 17.2613 3.72205 17.7223C3.14076 18.3045 2.66726 18.7771 2.08597 19.3594C1.20634 20.239 0.285298 20.904 0.0398865 21.6171V22.3389C0.12939 22.5949 0.318977 22.8654 0.635606 23.1599H0.63368Z" fill="white"/>
<path id="Vector_11" fill-rule="evenodd" clip-rule="evenodd" d="M10.4531 32.8253C10.7687 33.522 12.45 35.007 13.0198 35.5768C13.4779 36.0349 13.8263 36.3833 14.2844 36.8414L15.2497 37.8124C15.5384 38.0626 15.3488 37.9549 15.6606 38.0848C16.8732 37.822 15.9426 38.1165 16.7019 38.3879L17.1485 37.9568L17.7433 38.2523C18.1099 37.6305 18.2908 37.9635 18.5901 37.798L18.4689 37.3986C18.083 36.7451 16.776 35.6124 16.1437 34.981C15.4479 34.2852 14.4721 33.0495 13.6473 32.6376C13.0467 33.0726 13.4134 32.4808 12.8331 33.0149C12.6868 32.7647 12.4606 32.5923 12.1815 32.7338C12.0988 32.6963 12.3875 32.3749 11.8649 32.8667C11.8639 32.8676 11.6763 33.1275 11.6426 33.1602C11.324 32.9908 10.8967 32.8965 10.4521 32.8253H10.4531Z" fill="white"/>
<path id="Vector_12" fill-rule="evenodd" clip-rule="evenodd" d="M21.1656 13.89L25.146 17.9446C25.685 17.7743 25.8255 17.4904 26.1883 17.1285C26.5502 16.7657 26.8341 16.6252 26.9688 16.1228L24.2789 13.4445C24.1625 13.8265 24.3338 13.9093 23.6457 13.6831C23.126 13.5128 23.5677 13.4858 23.0095 13.3848L21.64 13.3242C21.3176 14.0026 22.0038 13.4868 21.1665 13.8891L21.1656 13.89Z" fill="white"/>
</g>
</svg>
