<svg width="148" height="39" viewBox="0 0 148 39" fill="none" xmlns="http://www.w3.org/2000/svg">
<g id="_2335877520560">
<path id="Vector" fill-rule="evenodd" clip-rule="evenodd" d="M3.32334 11.0197C4.11636 12.6587 22.8071 21.1634 22.8081 21.1634C23.5174 21.2096 41.8395 12.626 42.5883 11.0197C41.8751 9.46739 23.4202 0.887597 23.1122 0.870274C22.4145 0.827929 4.17023 9.36634 3.32236 11.0197H3.32334Z" fill="white"/>
<path id="Vector_2" fill-rule="evenodd" clip-rule="evenodd" d="M21.7437 38.1537C22.5684 31.6642 20.6388 25.7214 16.1762 21.3655C14.0319 19.2723 2.64867 12.7598 1.39755 14.0292C0.49289 14.9473 -0.219286 25.4009 6.64263 30.8837C8.14301 32.0828 20.0883 38.4578 21.7437 38.1546V38.1537Z" fill="white"/>
<path id="Vector_3" fill-rule="evenodd" clip-rule="evenodd" d="M25.189 38.2528C26.4594 38.2364 37.3384 32.7642 38.9552 31.6998C43.9982 28.3814 45.8095 23.07 45.8008 17.0309C45.7941 12.1044 45.7007 12.8791 39.3796 16.0011C36.5386 17.4043 33.8507 18.6679 31.4793 20.4917C27.8732 23.2644 23.5453 30.748 25.189 38.2528Z" fill="white"/>
<path id="Vector_4" d="M60.5438 18.0732V10.3403H57.6556V9.31245H64.5936V10.3403H61.7064V18.0732H60.5438ZM65.8158 18.0732V9.31245H72.1417V10.3403H66.9784V13.0321H71.8116V14.06H66.9784V17.0453H72.3496V18.0732H65.8158ZM73.977 18.0732V9.31245H80.3029V10.3403H75.1396V13.0321H79.9727V14.06H75.1396V17.0453H80.5107V18.0732H73.977ZM82.1016 18.0732V9.31245H83.2921L87.8885 16.1898V9.31245H89.002V18.0732H87.8115L83.2151 11.1968V18.0732H82.1016ZM98.4489 14.6355V13.6076H102.156V16.8538C101.587 17.3071 101 17.6497 100.395 17.8778C99.7886 18.1059 99.1669 18.2204 98.5307 18.2204C97.6703 18.2204 96.8888 18.0366 96.1853 17.667C95.4837 17.3004 94.9516 16.7662 94.5945 16.0704C94.2355 15.3727 94.0565 14.5941 94.0565 13.7356C94.0565 12.883 94.2346 12.088 94.5907 11.347C94.9467 10.6088 95.4587 10.0602 96.1286 9.70319C96.7974 9.34421 97.5683 9.16425 98.4412 9.16425C99.0735 9.16425 99.6461 9.26626 100.158 9.47221C100.67 9.67816 101.071 9.964 101.361 10.3287C101.653 10.6954 101.872 11.1747 102.024 11.7646L100.978 12.0505C100.845 11.6059 100.683 11.2546 100.488 10.9976C100.293 10.7426 100.016 10.5385 99.6529 10.3855C99.292 10.2325 98.8897 10.1555 98.448 10.1555C97.9196 10.1555 97.4634 10.2373 97.0756 10.398C96.6906 10.5588 96.3807 10.7714 96.142 11.0361C95.9053 11.2998 95.7215 11.5885 95.5915 11.9032C95.3692 12.448 95.2566 13.035 95.2566 13.6702C95.2566 14.4536 95.3914 15.108 95.6589 15.6354C95.9274 16.1619 96.3191 16.5535 96.8311 16.8086C97.345 17.0636 97.8898 17.1916 98.4662 17.1916C98.9686 17.1916 99.4575 17.0944 99.9348 16.9C100.412 16.7046 100.773 16.4987 101.019 16.2764V14.6345H98.4499L98.4489 14.6355ZM104.064 18.0732V9.31245H105.226V18.0732H104.064ZM107.291 18.0732V9.31245H111.174C111.954 9.31245 112.548 9.39137 112.954 9.54921C113.359 9.70608 113.684 9.98324 113.927 10.3817C114.17 10.7791 114.29 11.2199 114.29 11.7011C114.29 12.3228 114.088 12.8483 113.687 13.2737C113.285 13.7 112.665 13.9695 111.824 14.0859C112.132 14.2322 112.365 14.3795 112.524 14.5219C112.862 14.8318 113.182 15.2216 113.483 15.6883L114.997 18.0741H113.55L112.391 16.2513C112.054 15.723 111.775 15.3217 111.557 15.0416C111.336 14.7625 111.141 14.5681 110.968 14.4565C110.796 14.3468 110.619 14.2688 110.439 14.2236C110.309 14.1976 110.095 14.1832 109.795 14.1832H108.453V18.0741H107.29L107.291 18.0732ZM108.454 13.1794H110.942C111.472 13.1794 111.884 13.1245 112.182 13.0138C112.48 12.9061 112.707 12.7309 112.86 12.4884C113.015 12.2468 113.093 11.986 113.093 11.703C113.093 11.2892 112.944 10.9466 112.643 10.68C112.344 10.4125 111.871 10.2806 111.224 10.2806H108.455V13.1803L108.454 13.1794ZM116.054 18.0732V9.31245H117.217V17.0453H121.524V18.0732H116.054ZM122.529 15.2591L123.618 15.161C123.669 15.6017 123.789 15.9626 123.978 16.2456C124.168 16.5266 124.462 16.7557 124.859 16.9308C125.257 17.104 125.706 17.1916 126.204 17.1916C126.646 17.1916 127.035 17.1262 127.374 16.9943C127.713 16.8615 127.964 16.6796 128.128 16.4496C128.293 16.2196 128.377 15.9684 128.377 15.6989C128.377 15.4256 128.298 15.1869 128.138 14.981C127.979 14.777 127.715 14.6057 127.349 14.4651C127.115 14.3756 126.595 14.2322 125.789 14.0388C124.983 13.8454 124.42 13.6635 124.098 13.4931C123.68 13.2727 123.37 12.9994 123.166 12.6751C122.96 12.3508 122.858 11.986 122.858 11.5837C122.858 11.1391 122.985 10.7253 123.235 10.3422C123.486 9.95726 123.851 9.66468 124.335 9.46547C124.816 9.26529 125.353 9.1652 125.942 9.1652C126.59 9.1652 127.163 9.26914 127.659 9.4799C128.154 9.68778 128.535 9.99575 128.803 10.4038C129.071 10.8099 129.213 11.2709 129.233 11.7849L128.12 11.8705C128.06 11.3171 127.858 10.8995 127.513 10.6184C127.169 10.3345 126.659 10.194 125.986 10.194C125.284 10.194 124.772 10.323 124.453 10.579C124.132 10.8359 123.972 11.1458 123.972 11.5087C123.972 11.8224 124.085 12.0822 124.311 12.2863C124.536 12.4884 125.117 12.6982 126.059 12.9099C127.001 13.1245 127.648 13.3093 127.998 13.4681C128.506 13.7029 128.883 13.9984 129.125 14.3593C129.369 14.7183 129.488 15.1321 129.488 15.6008C129.488 16.0685 129.356 16.5045 129.089 16.9164C128.821 17.3283 128.44 17.6488 127.941 17.8768C127.441 18.1049 126.88 18.2195 126.255 18.2195C125.463 18.2195 124.8 18.103 124.266 17.873C123.73 17.642 123.312 17.2956 123.008 16.8307C122.702 16.3678 122.544 15.8433 122.527 15.2582L122.529 15.2591ZM134.665 18.0732V9.31245H135.828V18.0732H134.665ZM137.856 18.0732V9.31245H139.047L143.643 16.1898V9.31245H144.757V18.0732H143.566L138.97 11.1968V18.0732H137.856Z" fill="white"/>
<path id="Vector_5" d="M58.3591 32.1155V22.0488H62.1366C62.9055 22.0488 63.5215 22.1489 63.9882 22.3539C64.4521 22.5579 64.8149 22.8717 65.0777 23.2961C65.3423 23.7186 65.4742 24.1613 65.4742 24.6252C65.4742 25.0534 65.3568 25.4596 65.1248 25.8387C64.8929 26.2189 64.5406 26.5259 64.07 26.7598C64.6792 26.9378 65.1479 27.2429 65.4742 27.674C65.8014 28.1033 65.9659 28.6114 65.9659 29.1975C65.9659 29.671 65.8659 30.1089 65.6667 30.5141C65.4674 30.9193 65.2211 31.2311 64.9285 31.4515C64.6359 31.6699 64.2673 31.8355 63.8275 31.9481C63.3848 32.0607 62.8429 32.1165 62.201 32.1165H58.3601L58.3591 32.1155ZM59.6949 26.2805H61.8719C62.4618 26.2805 62.8863 26.2401 63.1413 26.1631C63.481 26.062 63.737 25.8936 63.9074 25.6588C64.0787 25.4249 64.1653 25.1324 64.1653 24.7782C64.1653 24.4433 64.0864 24.1478 63.9238 23.8947C63.765 23.6387 63.5349 23.4636 63.2375 23.3702C62.9401 23.2768 62.4291 23.2297 61.7073 23.2297H59.694V26.2805H59.6949ZM59.6949 30.9347H62.202C62.6332 30.9347 62.9353 30.9183 63.1115 30.8856C63.4156 30.8317 63.6735 30.7403 63.8794 30.6113C64.0854 30.4823 64.2548 30.2947 64.3876 30.0492C64.5214 29.8029 64.5868 29.519 64.5868 29.1985C64.5868 28.8212 64.4906 28.4959 64.2962 28.2168C64.1037 27.9387 63.8371 27.7433 63.4945 27.6317C63.1548 27.5191 62.663 27.4633 62.023 27.4633H59.694V30.9356L59.6949 30.9347ZM67.7377 32.1155V22.0488H69.0735V30.9347H74.0232V32.1155H67.7377ZM75.206 27.215C75.206 25.5462 75.6564 24.2392 76.5533 23.2942C77.4513 22.3501 78.608 21.8794 80.0285 21.8794C80.9592 21.8794 81.7955 22.1017 82.5433 22.5454C83.2882 22.9881 83.8579 23.6069 84.2487 24.4009C84.6404 25.193 84.8367 26.0928 84.8367 27.0976C84.8367 28.1168 84.6307 29.031 84.2179 29.8346C83.8059 30.6411 83.2227 31.2503 82.4673 31.6632C81.7108 32.077 80.8947 32.2839 80.0208 32.2839C79.0719 32.2839 78.226 32.0549 77.4782 31.5978C76.7333 31.1406 76.1664 30.5179 75.7815 29.7249C75.3975 28.9357 75.205 28.0985 75.205 27.215H75.206ZM76.5841 27.2381C76.5841 28.4497 76.9094 29.4035 77.5609 30.0993C78.2125 30.7951 79.0305 31.1445 80.0141 31.1445C81.0179 31.1445 81.8398 30.7932 82.4894 30.0897C83.1361 29.3871 83.4595 28.3881 83.4595 27.0947C83.4595 26.2766 83.3219 25.5625 83.0447 24.9524C82.7685 24.3432 82.3633 23.8697 81.8311 23.5348C81.297 23.1999 80.6993 23.0314 80.0363 23.0314C79.0941 23.0314 78.2837 23.3548 77.6033 24.0015C76.9238 24.6483 76.5841 25.7261 76.5841 27.2371V27.2381ZM93.7216 28.5835L95.0574 28.9204C94.7783 30.0146 94.2769 30.8471 93.5531 31.4207C92.8294 31.9952 91.943 32.283 90.896 32.283C89.8133 32.283 88.9317 32.0626 88.2532 31.6199C87.5728 31.1791 87.0579 30.5401 86.7037 29.7028C86.3505 28.8636 86.1725 27.9657 86.1725 27.0061C86.1725 25.9581 86.3717 25.0448 86.7721 24.2643C87.1724 23.4838 87.7422 22.8909 88.4803 22.4857C89.2185 22.0806 90.0317 21.8785 90.9172 21.8785C91.9248 21.8785 92.7707 22.1335 93.455 22.6465C94.1412 23.1594 94.6195 23.8793 94.889 24.8071L93.581 25.116C93.3491 24.3846 93.0094 23.8504 92.5667 23.5184C92.124 23.1835 91.5658 23.017 90.8931 23.017C90.1212 23.017 89.4755 23.2018 88.9567 23.5723C88.439 23.9428 88.0732 24.4423 87.8644 25.065C87.6536 25.6905 87.5478 26.3353 87.5478 26.9984C87.5478 27.854 87.6719 28.6018 87.9202 29.2389C88.1685 29.8789 88.5554 30.3543 89.0799 30.671C89.6044 30.9876 90.1722 31.1445 90.7834 31.1445C91.5292 31.1445 92.1567 30.9289 92.6725 30.4997C93.1884 30.0685 93.5378 29.4304 93.7206 28.5835H93.7216ZM96.6482 32.1146V22.0479H97.984V27.0389L102.985 22.0479H104.789L100.566 26.1304L104.972 32.1155H103.215L99.6317 27.035L97.984 28.6288V32.1155H96.6482V32.1146ZM113.253 28.5835L114.589 28.9204C114.31 30.0146 113.809 30.8471 113.085 31.4207C112.361 31.9952 111.475 32.283 110.427 32.283C109.344 32.283 108.463 32.0626 107.784 31.6199C107.105 31.1791 106.589 30.5401 106.235 29.7028C105.881 28.8636 105.702 27.9657 105.702 27.0061C105.702 25.9581 105.902 25.0448 106.303 24.2643C106.703 23.4838 107.273 22.8909 108.011 22.4857C108.749 22.0806 109.563 21.8785 110.448 21.8785C111.456 21.8785 112.302 22.1335 112.986 22.6465C113.672 23.1594 114.15 23.8793 114.42 24.8071L113.113 25.116C112.881 24.3846 112.541 23.8504 112.099 23.5184C111.656 23.1835 111.098 23.017 110.425 23.017C109.654 23.017 109.007 23.2018 108.489 23.5723C107.971 23.9428 107.605 24.4423 107.396 25.065C107.186 25.6905 107.08 26.3353 107.08 26.9984C107.08 27.854 107.204 28.6018 107.452 29.2389C107.7 29.8789 108.087 30.3543 108.612 30.671C109.136 30.9876 109.704 31.1445 110.315 31.1445C111.06 31.1445 111.689 30.9289 112.203 30.4997C112.719 30.0685 113.069 29.4304 113.252 28.5835H113.253ZM116.293 32.1146V22.0479H117.629V26.1958H122.831V22.0479H124.167V32.1146H122.831V27.3757H117.629V32.1146H116.293ZM125.286 32.1146L129.148 22.0479H130.613L134.712 32.1146H133.195L132.031 29.0637H127.791L126.699 32.1146H125.286ZM128.183 27.981H131.614L130.564 25.1901C130.248 24.3413 130.009 23.6406 129.842 23.0882C129.704 23.7446 129.519 24.3884 129.287 25.0255L128.183 27.981ZM135.994 32.1146V22.0479H137.33V32.1146H135.994ZM139.662 32.1146V22.0479H141.03L146.313 29.9501V22.0479H147.592V32.1146H146.223L140.941 24.2123V32.1146H139.662Z" fill="white"/>
</g>
</svg>
