<svg width="108" height="28" viewBox="0 0 108 28" fill="none" xmlns="http://www.w3.org/2000/svg">
<g id="_2335877525408">
<path id="Vector" fill-rule="evenodd" clip-rule="evenodd" d="M2.10686 8.46443L12.0821 18.5196C12.9098 18.2068 15.1965 15.3206 16.1839 14.6344C16.9509 15.2128 17.3753 16.6987 16.9971 17.9508C16.6766 19.0123 15.6902 19.7688 15.0906 20.3674C13.5161 21.939 12.2265 23.9129 9.74159 21.4049L3.1809 14.8432C2.71318 14.3765 1.38411 12.9232 0.923117 12.6595C0.536232 19.3501 4.38294 25.0812 10.6376 26.7577C14.1734 27.7057 17.615 27.1475 20.4618 25.6125C22.6185 24.4499 25.4663 21.7792 26.1832 19.4233L16.2157 9.36621C15.337 9.71363 13.1186 12.6085 12.1062 13.2543C11.37 12.7134 10.9552 11.3016 11.2314 10.1409C11.5191 8.93118 12.4854 8.20845 13.1215 7.57134C16.9201 3.7689 16.6526 4.59271 22.8841 10.8117L27.3583 15.2205C27.8751 7.90529 23.297 2.73429 17.6525 1.14055C12.5374 -0.304008 7.88415 1.44853 4.46378 4.90355C3.73139 5.64363 2.43119 7.28551 2.1059 8.46734L2.10686 8.46443Z" fill="white"/>
<path id="Vector_2" fill-rule="evenodd" clip-rule="evenodd" d="M105.246 12.9338C104.217 12.469 102.53 11.0379 99.8665 12.3862C95.1459 14.7759 97.2314 22.451 102.942 21.5916C103.439 21.5165 103.862 21.3664 104.293 21.146C104.748 20.9131 105.008 20.6109 105.37 20.4396C105.828 21.4232 104.799 21.3645 107.423 21.3548L107.421 8.76474L105.287 8.75896L105.246 12.9338ZM92.2895 18.5245H89.8999C88.9721 20.6388 85.1167 20.1047 84.701 17.3792L92.6081 17.3772C93.4723 11.2872 84.2227 9.71751 82.679 15.4476C80.9428 21.8948 90.5187 23.8994 92.2886 18.5235L92.2895 18.5245ZM49.1451 18.5629C46.8305 18.5187 47.0846 18.3059 46.3773 19.0354C44.8191 20.6436 41.8511 19.6408 41.5528 17.3888L49.4598 17.3801C50.325 11.2063 40.9435 9.77044 39.5144 15.4958C38.7781 18.4465 40.6125 20.7591 42.852 21.4212C45.7652 22.2826 48.4782 20.6032 49.1451 18.5639V18.5629ZM72.7826 12.1514L71.0234 12.1688V14.0021L72.7942 14.0493L72.8067 21.2952L74.999 21.35L75 14.0454L78.8303 14.0493L78.8371 21.3597L81.0487 21.3548V12.1658L75.0221 12.1504C74.897 10.1169 75.82 10.0822 77.585 10.0832L77.6399 8.29218C74.1011 8.29026 73.0203 8.58669 72.7836 12.1514H72.7826ZM61.2098 21.3606L63.355 21.376C63.8323 18.7275 62.2145 13.9877 65.7446 13.7875C69.0995 13.5969 68.2796 17.2387 68.2844 21.35L70.4969 21.3606C70.495 17.1665 71.4073 12.2554 66.8956 11.8945C64.9429 11.7376 64.7023 12.3121 63.3848 12.8597L63.4021 8.79265L61.2319 8.7599L61.2107 21.3616L61.2098 21.3606ZM60.0154 18.1616H57.8279C56.2544 20.8352 52.3644 19.9055 52.3749 16.744C52.3855 13.4709 56.495 12.7655 57.8067 15.3485H60.0241C59.8614 14.2254 58.8557 13.1783 58.1773 12.7164C57.1821 12.0398 55.8376 11.7212 54.4162 11.9214C48.8073 12.7086 48.7823 20.787 54.4114 21.581C57.0734 21.9563 59.7421 20.301 60.0145 18.1616H60.0154ZM31.2512 10.678L34.8333 10.6866L34.8371 21.3606L37.0035 21.3799C37.3625 20.225 36.8197 12.4036 37.1401 10.6963L40.7049 10.6838L40.6962 8.73391H31.2522L31.2512 10.677V10.678ZM101.586 13.9136C97.9244 14.9087 99.393 20.8708 103.377 19.5937C106.754 18.5119 105.485 12.8549 101.586 13.9136ZM93.8515 21.3587L96.0458 21.35L96.0448 8.77052L93.9083 8.75125L93.8524 21.3587H93.8515ZM41.65 15.8297H47.1472C47.0221 14.6604 45.8104 13.6547 44.4698 13.6403C43.0801 13.6258 41.7712 14.6277 41.65 15.8287V15.8297ZM84.7751 15.8066L90.3041 15.8316C90.1636 14.6363 88.9298 13.6142 87.5333 13.6422C86.1263 13.6701 84.9656 14.6354 84.7761 15.8066H84.7751ZM79.5849 8.38457C77.97 8.76376 78.4136 11.1515 80.3625 10.728C82.0188 10.3681 81.4096 7.95534 79.5849 8.38457Z" fill="white"/>
</g>
</svg>
