<svg width="105" height="37" viewBox="0 0 105 37" fill="none" xmlns="http://www.w3.org/2000/svg">
<g id="_2335873777136">
<path id="Vector" fill-rule="evenodd" clip-rule="evenodd" d="M0.47049 13.5478V21.0209C0.47049 21.8485 2.81777 22.8773 3.85332 23.4904C4.31046 23.7608 7.43151 25.6134 7.67308 25.6134C8.2534 25.6134 8.56045 25.3247 8.96466 25.1043L14.6784 21.8148C15.0768 21.5752 15.4156 21.4068 15.8285 21.1633C16.2962 20.8871 17.5358 20.3568 16.1692 19.6388C15.8708 19.482 15.5927 19.3184 15.3097 19.148L11.1329 16.7526C9.51898 15.8229 11.1012 15.5025 13.7237 13.926C14.3059 13.5757 14.8411 13.2822 15.4454 12.9463C15.7601 12.7712 15.9757 12.6153 16.2904 12.4401L22.2987 8.9947C22.9185 8.62803 23.521 8.46442 23.521 7.51646V0.853759C23.521 0.430303 23.3622 0.255148 23.1283 0.223389H22.9541C22.4315 0.281133 21.6943 0.806604 21.3988 0.98176L14.3098 5.05752C13.3253 5.60705 12.4216 6.18353 11.4563 6.70611C10.516 7.21522 9.57769 7.79748 8.66052 8.32199C7.69524 8.8744 6.76171 9.38929 5.80124 9.9648C5.33736 10.2429 4.87541 10.4951 4.42789 10.752L1.5686 12.3949C1.13745 12.6537 0.471476 12.904 0.471476 13.5478H0.47049Z" fill="white"/>
<path id="Vector_2" fill-rule="evenodd" clip-rule="evenodd" d="M14.4263 16.1598C14.4263 16.6516 15.1962 16.8989 15.8843 17.3127L20.0611 19.7081C21.5201 20.5493 20.3883 20.8178 19.1805 21.5434L8.89533 27.4651C8.27555 27.8318 7.67307 27.9954 7.67307 28.9433V35.606C7.67307 36.196 8.00995 36.2345 8.29289 36.2364H8.34195H8.39393L29.6254 24.064C30.0575 23.8051 30.7235 23.5549 30.7235 22.911V15.438C30.7235 14.5997 28.3242 13.5584 27.2839 12.9348C22.6836 10.1765 23.7991 10.4951 21.0274 12.0446C20.2343 12.4873 19.5029 12.9261 18.7445 13.363L15.3655 15.2965C15.0123 15.5053 14.4263 15.6969 14.4263 16.1588V16.1598Z" fill="white"/>
<path id="Vector_3" fill-rule="evenodd" clip-rule="evenodd" d="M36.1255 13.1879C36.1255 14.3601 36.3391 15.08 37.0475 15.7777C39.4727 18.1673 43.2386 17.2733 43.2386 19.5811C43.2386 21.0651 39.6777 21.5069 38.3611 19.5965C38.1802 19.3338 38.0714 19.046 37.9261 18.7708L35.5846 20.122C35.6221 20.5772 36.0831 21.2566 36.3035 21.5636C37.9406 23.8513 42.2444 24.2863 44.4627 22.6069C46.4607 21.0959 46.7773 17.7535 44.1923 16.1954C43.8286 15.976 43.4984 15.8441 43.0846 15.6824C41.4745 15.053 38.9155 14.7046 38.9155 13.2783C38.9155 11.2429 42.7574 11.5768 43.2376 13.6383C43.5908 13.6085 45.4223 12.5017 45.5782 12.2871C45.2712 10.9686 43.1269 9.22568 41.1665 9.22568H40.2657C38.1119 9.22568 36.1245 10.9907 36.1245 13.1869L36.1255 13.1879Z" fill="white"/>
<path id="Vector_4" fill-rule="evenodd" clip-rule="evenodd" d="M49.2709 18.5908V18.1404C49.2709 15.0366 54.5834 14.3543 54.5834 18.5908C54.5834 21.9226 49.2709 21.9409 49.2709 18.5908ZM49.2709 14.4496C49.2709 13.1195 49.7271 13.3688 46.6599 13.3688V27.2341H49.2709V22.2825C51.982 25.4026 57.1943 22.7195 57.1943 18.7707C57.1943 17.05 56.9278 15.7777 55.7344 14.5593C54.5227 13.3226 52.3573 12.6393 50.5596 13.4862C49.8406 13.824 49.7781 14.1098 49.2719 14.4496H49.2709Z" fill="white"/>
<path id="Vector_5" fill-rule="evenodd" clip-rule="evenodd" d="M57.9142 23.0919C57.9142 23.2998 57.9767 23.3624 58.1846 23.3624C61.1546 23.3624 60.6157 23.8734 60.6157 21.2008C60.6157 20.197 60.4598 17.2906 60.8524 16.5755C61.5617 15.283 63.883 15.1983 64.4556 16.641C64.6934 17.2386 64.5865 21.3115 64.5759 22.3721C64.5644 23.6001 64.1669 23.3624 67.1879 23.3624V16.6997C67.1879 15.3639 66.238 13.927 65.0437 13.4419C63.4778 12.8048 61.7224 13.0859 60.6157 14.3591V9.49707H57.9142V23.0929V23.0919Z" fill="white"/>
<path id="Vector_6" fill-rule="evenodd" clip-rule="evenodd" d="M72.7698 15.5284C74.7716 15.5284 74.8592 16.1453 75.4703 17.4196H70.5188C70.7555 16.4023 71.5245 15.5284 72.7698 15.5284ZM67.8173 18.2299C67.8173 20.0084 68.3659 21.1864 69.3687 22.1709C70.9586 23.7329 73.66 24.0842 75.8322 23.0034C76.3904 22.7253 77.3932 22.0208 77.5414 21.3818C77.0092 21.2393 76.1084 20.4502 75.4703 20.301C74.4656 20.9737 74.6407 21.2008 72.9498 21.2008C71.767 21.2008 70.8325 20.4482 70.6083 19.4906L77.0015 19.4916C77.6867 19.4983 77.783 19.5936 77.9466 19.3559C78.2757 18.8795 78.2911 15.0347 75.172 13.5757C73.8978 12.98 72.2472 12.9617 70.9403 13.5199C69.0444 14.3303 67.8163 16.1473 67.8163 18.2299H67.8173Z" fill="white"/>
<path id="Vector_7" fill-rule="evenodd" clip-rule="evenodd" d="M87.0855 18.4099C87.0855 14.7114 92.3075 14.9789 92.3075 18.1404V18.5908C92.3075 19.917 91.2027 21.0218 89.8765 21.0218C89.0286 21.0218 88.3857 20.915 87.7814 20.2355C87.4195 19.8284 87.0855 19.149 87.0855 18.4108V18.4099ZM84.4745 18.1404C84.4745 19.2327 84.5515 19.6417 84.9606 20.6253C85.2319 21.2769 85.6169 21.6676 86.0721 22.1247C87.5965 23.6559 89.786 24.0101 91.8465 23.1728C92.3142 22.9822 93.0485 22.4779 93.4123 22.1286C94.9156 20.685 95.3804 18.3069 94.5335 16.2743C93.1371 12.9232 88.6148 12.0359 86.0712 14.6065C85.1492 15.5381 84.4736 16.692 84.4736 18.1414L84.4745 18.1404Z" fill="white"/>
<path id="Vector_8" fill-rule="evenodd" clip-rule="evenodd" d="M98.3408 14.3582C98.3408 13.1446 98.7585 13.3678 95.9098 13.3678C95.7019 13.3678 95.6393 13.4304 95.6393 13.6383V23.0919C95.6393 23.2998 95.7019 23.3624 95.9098 23.3624C98.8797 23.3624 98.3408 23.8734 98.3408 21.2008C98.3408 20.3905 98.3408 19.5801 98.3408 18.7698C98.3408 17.8728 98.2706 17.2165 98.5824 16.5803C99.155 15.412 100.913 15.3841 101.69 15.9606C102.524 16.5813 102.303 17.8488 102.303 18.8593L102.302 22.3711C102.29 23.5991 101.893 23.3614 104.914 23.3614V16.6987C104.914 15.7132 104.329 14.696 103.847 14.1647C102.688 12.8876 99.8883 12.5777 98.3418 14.3582H98.3408Z" fill="white"/>
<path id="Vector_9" fill-rule="evenodd" clip-rule="evenodd" d="M81.4141 14.8086C81.4141 12.9944 81.928 13.3678 78.8031 13.3678V23.3624C82.0012 23.3624 81.4141 23.9071 81.4141 20.9313C81.4141 19.0643 80.8376 16.0876 84.0222 16.0924C84.2426 16.0924 84.385 16.2329 84.385 15.8893V13.1888C83.4371 13.1888 82.5256 13.5305 81.928 14.1532L81.5739 14.6093C81.4901 14.7229 81.4872 14.7248 81.4141 14.8095V14.8086Z" fill="white"/>
</g>
</svg>
