<svg width="144" height="33" viewBox="0 0 144 33" fill="none" xmlns="http://www.w3.org/2000/svg">
<g id="_2335873795664">
<g id="Group">
<path id="Vector" d="M45.3172 30.1417V10.4943H48.2401L48.5182 12.0804H48.6577C49.4931 10.9938 50.9126 10.2162 52.8884 10.2162C56.5051 10.2162 59.401 13.1669 59.401 17.5343C59.401 21.9017 56.5071 24.8523 52.8884 24.8523C50.9396 24.8523 49.5768 24.0449 48.8541 23.1277H48.7145V30.1398H45.3192L45.3172 30.1427V30.1417ZM56.0037 17.5362C56.0037 14.9762 54.36 13.3632 52.3572 13.3632C50.3535 13.3632 48.7107 14.9762 48.7107 17.5362C48.7107 20.0972 50.3535 21.7101 52.3572 21.7101C54.3609 21.7101 56.0037 20.0972 56.0037 17.5362Z" fill="white"/>
<path id="Vector_2" d="M61.1247 17.5362C61.1247 13.2785 64.1841 10.2181 68.2763 10.2181C72.3684 10.2181 75.4279 13.2776 75.4279 17.5362C75.4279 21.7948 72.3684 24.8543 68.2763 24.8543C64.1851 24.8543 61.1247 21.765 61.1247 17.5362ZM72.0046 17.5362C72.0046 15.0311 70.3339 13.3632 68.2763 13.3632C66.2177 13.3632 64.52 15.034 64.52 17.5362C64.52 20.0394 66.2177 21.6832 68.2763 21.6832C70.3339 21.6832 72.0046 20.0423 72.0046 17.5362Z" fill="white"/>
<path id="Vector_3" d="M77.8878 24.5752V5.09528H81.2831V24.5752H77.8878Z" fill="white"/>
<path id="Vector_4" d="M93.8886 10.4943H97.5053L91.3825 27.6087C90.7714 29.3064 89.936 30.1417 87.736 30.1417H84.4523V26.9976H87.2365C87.7389 26.9976 88.0141 26.7464 88.1835 26.3287L88.5165 25.4115L82.7844 10.4943H86.4011L90.0477 20.2636H90.6039L93.8876 10.4943H93.8886Z" fill="white"/>
<path id="Vector_5" d="M98.154 25.272H101.604C101.744 26.1892 102.661 27.4422 104.833 27.4422C106.864 27.4422 108.201 26.1622 108.201 24.2133V22.2366H108.062C107.311 23.045 105.919 23.7677 104.137 23.7677C100.521 23.7677 97.7363 20.9835 97.7363 16.977C97.7363 12.9696 100.521 10.2162 104.137 10.2162C106.001 10.2162 107.366 10.9669 108.228 12.0255H108.368L108.646 10.4943H111.597V24.2133C111.597 27.9417 109.091 30.4198 104.833 30.4198C100.075 30.4198 98.2387 27.3027 98.154 25.272ZM108.201 16.979C108.201 14.7818 106.642 13.2506 104.667 13.2506C102.69 13.2506 101.16 14.7818 101.16 16.979C101.16 19.1761 102.718 20.7352 104.667 20.7352C106.615 20.7352 108.201 19.204 108.201 16.979Z" fill="white"/>
<path id="Vector_6" d="M113.956 17.5362C113.956 13.2785 117.015 10.2181 121.107 10.2181C125.198 10.2181 128.259 13.2776 128.259 17.5362C128.259 21.7948 125.199 24.8543 121.107 24.8543C117.015 24.8543 113.956 21.765 113.956 17.5362ZM124.836 17.5362C124.836 15.0311 123.165 13.3632 121.107 13.3632C119.049 13.3632 117.351 15.034 117.351 17.5362C117.351 20.0394 119.049 21.6832 121.107 21.6832C123.166 21.6832 124.836 20.0423 124.836 17.5362Z" fill="white"/>
<path id="Vector_7" d="M130.622 24.5752V10.4934H133.543L133.821 11.8282H133.961C134.517 11.1892 135.91 10.2152 138.022 10.2152C141.251 10.2152 143.588 12.552 143.588 16.1138V24.5723H140.193V16.5584C140.193 14.7491 138.913 13.4412 137.16 13.4412C135.407 13.4412 134.016 14.8059 134.016 16.5584V24.5723H130.621L130.623 24.5752H130.622Z" fill="white"/>
</g>
<path id="Vector_8" d="M27.0471 22.9324L35.3939 18.1127C35.8366 17.8567 36.11 17.3822 36.11 16.8721V7.23274C36.11 6.72363 35.8366 6.24821 35.3939 5.99222L27.0471 1.17251C26.6043 0.916511 26.0558 0.918436 25.615 1.17251L17.2671 5.99222C16.8254 6.24821 16.5511 6.72267 16.5511 7.23274V24.4587L10.6978 27.8368L4.84449 24.4587V17.6998L10.6978 14.3218L14.558 16.5517V12.0178L11.4138 10.2008C11.1973 10.0766 10.949 10.0093 10.6978 10.0093C10.4466 10.0093 10.1983 10.0766 9.98177 10.2008L1.63487 15.0205C1.19217 15.2765 0.918854 15.7509 0.918854 16.261V25.9004C0.918854 26.4105 1.19217 26.885 1.63487 27.141L9.98177 31.9607C10.4245 32.2138 10.9711 32.2138 11.4138 31.9607L19.7607 27.141C20.2034 26.885 20.4767 26.4105 20.4767 25.9004V8.67152L20.5817 8.61187L26.3281 5.29351L32.1824 8.67152V15.4305L26.3281 18.8085L22.4728 16.5834V21.1173L25.6121 22.9295C26.0548 23.1835 26.6034 23.1835 27.0442 22.9295L27.0471 22.9324Z" fill="white"/>
</g>
</svg>
