<svg width="878" height="342" viewBox="0 0 878 342" fill="none" xmlns="http://www.w3.org/2000/svg">
<path d="M134.7 219.9V38L58 171.1L134.7 219.9Z" fill="#FFE94D"/>
<path d="M134.7 38L211.3 171.1L134.7 219.9V38Z" fill="#FF9C92"/>
<path d="M58 186.8L134.7 235.7V298.8" fill="#53D3E0"/>
<path d="M211.3 186.8L134.7 235.7V298.8" fill="#5A9DED"/>
<path opacity="0.75" d="M134.7 127.5L58 171.1L134.7 219.9V127.5Z" fill="#88D848"/>
<path opacity="0.75" d="M134.7 127.5L211.3 171.1L134.7 219.9V127.5Z" fill="#CC71C3"/>
<path d="M261 123C261.3 132.4 268.1 136.9 275.9 136.9C280.9 136.9 285.8 134.9 287.8 130.3H300.8C297.9 142.5 286.8 148.9 275.3 148.9C261.4 148.9 247.6 139.5 247.6 119C247.6 99.2 260.7 89 275.4 89C289.4 89 301.3 98.3 301.3 117.3V123H261ZM261.4 112.8H287.6C287.6 105.2 282.3 100.9 275.2 100.9C268.8 100.9 262.6 104.4 261.4 112.8ZM345.3 147.6H336.2C325.3 147.6 318.5 144.2 318.5 128.8V102.5H308V90H318.5V77L332.4 73.2V90H343.9V102.5H332.4V128.4C332.4 132.4 333.5 135.3 339.3 135.3H345.2V147.6H345.3ZM409.3 110.4V147.6H395.4V111.6C395.4 105.1 391.5 101.3 384.6 101.3C376.3 101.3 371.9 107 371.9 116.4V147.5H358V68H372V98.5C375.2 93 379.7 89 389.5 89C402.6 88.9 409.3 96.7 409.3 110.4ZM436.2 123C436.5 132.4 443.3 136.9 451.1 136.9C456.1 136.9 461 134.9 463 130.3H476C473.1 142.5 462 148.9 450.5 148.9C436.6 148.9 422.8 139.5 422.8 119C422.8 99.2 435.9 89 450.6 89C464.6 89 476.5 98.3 476.5 117.3V123H436.2ZM436.5 112.8H462.7C462.7 105.2 457.4 100.9 450.3 100.9C443.9 100.9 437.8 104.4 436.5 112.8ZM523 102.8H519.3C509.6 102.8 504.3 108.1 504.3 119.4V147.6H490.4V90H504.2V98.5C507.1 92.2 512.5 89.3 519.2 89.3H523V102.8ZM543.2 123C543.5 132.4 550.3 136.9 558.1 136.9C563.1 136.9 568 134.9 570 130.3H583C580.1 142.5 569 148.9 557.5 148.9C543.6 148.9 529.8 139.5 529.8 119C529.8 99.2 542.9 89 557.6 89C571.6 89 583.5 98.3 583.5 117.3V123H543.2ZM543.5 112.8H569.7C569.7 105.2 564.4 100.9 557.3 100.9C550.9 100.9 544.7 104.4 543.5 112.8ZM647.1 147.6H633.5V139.4C630.1 144.8 625.4 148.2 617.5 148.2C605.4 148.2 596.8 140.5 596.8 125.7V90H610.7V124.8C610.7 132.6 614.8 136 620.8 136C627.3 136 633.2 131.2 633.2 117.9V90H647.1V147.6ZM747.2 108.8V147.7H733.3V111.5C733.3 104.7 730.1 101.5 724.1 101.5C717.5 101.5 713 105.5 713 115.3V147.7H699.1V111.5C699.1 104.7 695.6 101.5 689.8 101.5C683.3 101.5 678.8 105.6 678.8 115.2V147.7H665V90H678.7V98.5C680.5 93.9 685.1 89 693.8 89C701.5 89 707.2 92.5 709.9 98.5C712.1 94.4 716.5 89 726.9 89C739.4 88.9 747.2 96.3 747.2 108.8ZM273.1 188.3C268.2 188.3 267.3 190.8 267.3 194.1V197.9H277.9V210.4H267.3V255.5H253.4V210.4H244.8V198H253.4V194.9C253.4 179.4 260.2 176.1 271 176.1H279.4V188.4H273.1V188.3ZM342.8 226.8C342.8 245.6 331 256.8 314.1 256.8C297.3 256.8 285.5 245.6 285.5 226.8C285.5 208.1 297.3 196.9 314.1 196.9C331 196.9 342.8 208.1 342.8 226.8ZM299.8 226.8C299.8 238.4 306 243.9 314.4 243.9C323.4 243.9 328.6 237.6 328.6 226.8C328.6 215.3 322.4 209.8 314 209.8C305 209.8 299.8 216.1 299.8 226.8ZM406.5 255.6H393V247.4C389.6 252.8 384.9 256.2 377 256.2C364.9 256.2 356.3 248.5 356.3 233.7V198H370.2V232.8C370.2 240.6 374.3 244 380.3 244C386.8 244 392.7 239.2 392.7 225.9V198H406.6V255.6H406.5ZM475.6 218.4V255.6H461.7V219.6C461.7 213.1 457.8 209.3 450.9 209.3C442.6 209.3 438.2 215 438.2 224.4V255.5H424.3V198H438.1V206.4C441.3 201 446.1 197 455.7 197C468.9 196.9 475.6 204.7 475.6 218.4ZM546.9 255.6H533.2V246.8C530.1 253.4 522.9 256.9 514.9 256.9C500.8 256.9 489 247 489 226.8C489 206.9 500.8 197 514.9 197C522.4 197 529.5 200 532.9 205.6V176H546.8V255.6H546.9ZM533.3 226.7C533.3 214.8 525.7 209.2 518.2 209.2C510.1 209.2 503.2 214.9 503.2 226.7C503.2 238.3 510.1 244.1 518.2 244.1C525.7 244.1 533.3 238.5 533.3 226.7ZM611.1 216.9V255.7H597.5V247.3C593 254.7 585.5 256.9 579.4 256.9C570.2 256.9 560.8 252 560.8 239.8C560.8 225.4 573.9 222.9 579.2 222.1L591.2 220.4C593.8 220.1 598 218.9 598 214.2C598 209.6 593.9 207.9 588.6 207.9C580.9 207.9 577.1 211.5 576.5 216.4H563.2C564.7 203 576.2 196.9 589.2 196.9C602.9 196.9 611.1 203.3 611.1 216.9ZM597.7 231.4V228.4C595.9 229.2 594 229.6 590.8 230.1L584 231C580.4 231.4 574.7 233 574.7 238.7C574.7 243.1 578.1 245.3 583.1 245.3C591.2 245.3 597.7 239.4 597.7 231.4ZM658 255.6H648.9C638 255.6 631.2 252.2 631.2 236.8V210.5H620.7V198H631.2V185L645.1 181.2V198H656.6V210.5H645.1V236.4C645.1 240.4 646.2 243.3 652 243.3H657.9V255.6H658ZM670.1 174.5H684.9V190.3H670.1V174.5ZM670.5 255.6H684.4V198H670.5V255.6ZM755.3 226.8C755.3 245.6 743.5 256.8 726.6 256.8C709.8 256.8 698 245.6 698 226.8C698 208.1 709.8 196.9 726.6 196.9C743.5 196.9 755.3 208.1 755.3 226.8ZM712.3 226.8C712.3 238.4 718.5 243.9 726.9 243.9C735.9 243.9 741.1 237.6 741.1 226.8C741.1 215.3 734.9 209.8 726.5 209.8C717.5 209.8 712.3 216.1 712.3 226.8ZM820.5 218.4V255.6H806.6V219.6C806.6 213.1 802.7 209.3 795.8 209.3C787.5 209.3 783.1 215 783.1 224.4V255.5H769.2V198H783V206.4C786.2 201 791 197 800.6 197C813.7 196.9 820.5 204.7 820.5 218.4Z" fill="white"/>
</svg>
