<svg width="330" height="329" viewBox="0 0 230 229" fill="none" xmlns="http://www.w3.org/2000/svg">
<path d="M96.8818 203.888C91.8841 202.933 87.7766 205.789 86.816 210.859C85.8419 216 88.6887 220.184 93.7806 221.157L99.8155 222.31L103.082 205.072L96.8818 203.888ZM94.5908 218.428C91.0311 217.748 89.3059 215.122 89.9985 211.467C90.6776 207.883 93.1957 206.067 96.6374 206.725L99.537 207.278L97.3253 218.951L94.5908 218.428Z" fill="white"/>
<path d="M69.0187 203.75C67.0685 208.734 68.9726 213.484 73.6387 215.324C78.3048 217.165 82.9063 214.955 84.8477 209.994C86.7979 205.01 84.9385 200.277 80.2723 198.437C75.5839 196.587 70.9601 198.788 69.0187 203.75ZM72.0327 204.939C73.3794 201.497 76.1827 199.997 79.1744 201.177C82.166 202.357 83.2203 205.327 81.8561 208.814C80.4918 212.3 77.706 213.755 74.7144 212.575C71.7227 211.395 70.6684 208.425 72.0327 204.939Z" fill="white"/>
<path d="M56.4947 202.647L52.3932 199.556L61.2026 187.773L58.7494 185.924L49.9399 197.707L45.8384 194.615L44.1426 196.883L54.7989 204.915L56.4947 202.647Z" fill="white"/>
<path d="M50.9303 178.789L45.5294 183.906L40.2041 178.24L45.605 173.123L43.5012 170.885L30.7654 182.951L32.8692 185.189L38.1308 180.204L43.4561 185.871L38.1946 190.856L40.2984 193.094L53.0341 181.028L50.9303 178.789Z" fill="white"/>
<path d="M36.2119 159.46L33.8552 161.03L38.1695 167.557L34.2949 170.139L30.4306 164.293L28.1737 165.797L32.0381 171.643L28.2833 174.145L23.969 167.618L21.6123 169.188L27.6205 178.278L42.2202 168.55L36.2119 159.46Z" fill="white"/>
<path d="M30.3005 145.666L24.0925 147.761L22.8964 144.188L28.1596 139.271L27.093 136.085L21.33 141.55C19.8789 139.862 17.9366 139.352 15.7081 140.104C12.4336 141.209 11.2624 144.061 12.5272 147.839L14.6529 154.189L31.2758 148.579L30.3005 145.666ZM16.27 150.401L15.1195 146.964C14.5024 145.121 15.069 143.714 16.729 143.154C18.4118 142.586 19.7553 143.348 20.3725 145.192L21.5229 148.628L16.27 150.401Z" fill="white"/>
<path d="M26.5983 131.997L22.3776 131.205L21.4035 124.725L25.2032 122.717L24.7215 119.513L8.31756 128.408L8.78498 131.517L27.0729 135.154L26.5983 131.997ZM13.7831 129.57C13.2835 129.476 12.7401 129.413 12.3972 129.392C12.746 129.29 13.243 129.045 13.6725 128.834L18.9728 125.992L19.6793 130.691L13.7831 129.57Z" fill="white"/>
<path d="M25.1154 114.788L18.5654 114.626L18.6577 110.859L25.2807 108.046L25.3631 104.687L18.0835 107.844C17.2944 105.76 15.6419 104.615 13.2907 104.557C9.83572 104.471 7.76326 106.749 7.66557 110.731L7.50139 117.425L25.04 117.859L25.1154 114.788ZM10.3119 114.422L10.4007 110.799C10.4484 108.856 11.4603 107.728 13.2118 107.772C14.9873 107.816 15.9907 108.993 15.943 110.936L15.8542 114.559L10.3119 114.422Z" fill="white"/>
<path d="M28.0875 91.399L25.3075 90.8589L23.8269 98.5415L19.2564 97.6536L20.5825 90.7722L17.9203 90.255L16.5941 97.1364L12.165 96.2759L13.6455 88.5933L10.8655 88.0532L8.8036 98.7523L26.0256 102.098L28.0875 91.399Z" fill="white"/>
<path d="M30.1331 86.5857C30.4621 85.5822 29.9184 84.4673 28.9385 84.1434C27.9358 83.8121 26.8388 84.3848 26.5099 85.3882C26.1809 86.3917 26.7246 87.5066 27.7273 87.838C28.7071 88.1618 29.8041 87.5891 30.1331 86.5857Z" fill="white"/>
<path d="M49.5862 53.4819C53.0178 49.7253 52.7504 44.7158 48.9546 41.2205C45.1058 37.6763 40.0634 37.8943 36.5672 41.7218L32.4235 46.2581L45.3292 58.1423L49.5862 53.4819ZM38.4562 43.8528C40.9004 41.1771 44.0329 41.0928 46.7694 43.6127C49.453 46.0838 49.6719 49.1891 47.3087 51.7762L45.3178 53.9558L36.5786 45.9083L38.4562 43.8528Z" fill="white"/>
<path d="M64.3365 29.7408C61.1389 25.4491 56.1146 24.5703 52.1039 27.5827C48.0931 30.5951 47.5475 35.6873 50.7307 39.9598C53.9283 44.2516 58.9142 45.1592 62.9249 42.1468C66.9548 39.12 67.5197 34.0134 64.3365 29.7408ZM61.7458 31.6866C63.954 34.6504 63.7519 37.8338 61.1804 39.7652C58.609 41.6965 55.5391 41.0308 53.3022 38.0284C51.0653 35.0261 51.2961 31.8813 53.8676 29.9499C56.439 28.0185 59.5089 28.6843 61.7458 31.6866Z" fill="white"/>
<path d="M71.8625 19.5987L76.6434 17.7221L81.9813 31.4316L84.8409 30.3091L79.503 16.5997L84.2839 14.7231L83.2563 12.0841L70.8349 16.9597L71.8625 19.5987Z" fill="white"/>
<path d="M94.9989 27.362L93.5106 20.0724L101.127 18.5048L102.615 25.7944L105.624 25.1751L102.115 7.98573L99.1057 8.60503L100.556 15.7065L92.9393 17.2741L91.4894 10.1726L88.4804 10.7919L91.99 27.9813L94.9989 27.362Z" fill="white"/>
<path d="M119.148 24.948L119.059 22.1175L111.239 22.3666L111.092 17.7129L118.096 17.4898L118.011 14.7791L111.006 15.0022L110.864 10.4925L118.684 10.2434L118.594 7.41279L107.704 7.75971L108.258 25.295L119.148 24.948Z" fill="white"/>
<path d="M133.944 27.1521L135.432 20.7712L139.1 21.6333L140.509 28.6951L143.78 29.4639L142.167 21.6886C144.367 21.3428 145.823 19.9593 146.357 17.6687C147.142 14.303 145.334 11.807 141.455 10.8955L134.937 9.36345L130.954 26.4492L133.944 27.1521ZM137.306 12.7309L140.834 13.56C142.727 14.0048 143.625 15.2267 143.227 16.9329C142.824 18.6625 141.468 19.404 139.575 18.9592L136.047 18.1301L137.306 12.7309Z" fill="white"/>
<path d="M147.476 31.1922L150.367 28.02L156.387 30.6067L156.097 34.8969L159.074 36.176L160.132 17.5356L157.244 16.2944L144.543 29.932L147.476 31.1922ZM156.272 21.5717C156.615 21.1964 156.954 20.7676 157.152 20.4869C157.055 20.837 157.003 21.3891 156.956 21.8654L156.587 27.8717L152.221 25.9956L156.272 21.5717Z" fill="white"/>
<path d="M162.838 39.0029L166.412 33.5116L169.562 35.5786L168.476 42.7025L171.286 44.5458L172.424 36.6813C174.608 37.1096 176.447 36.3072 177.73 34.3359C179.616 31.4394 178.769 28.4727 175.438 26.2871L169.839 22.6138L160.269 37.3176L162.838 39.0029ZM170.915 26.5921L173.945 28.5802C175.571 29.6466 175.997 31.1033 175.041 32.5717C174.073 34.0602 172.547 34.2931 170.921 33.2267L167.891 31.2386L170.915 26.5921Z" fill="white"/>
<path d="M181.085 53.881L183.001 51.796L177.263 46.4781L180.413 43.0503L185.554 47.8136L187.389 45.8169L182.249 41.0536L185.302 37.7318L191.041 43.0497L192.958 40.9648L184.965 33.5588L173.093 46.4751L181.085 53.881Z" fill="white"/>
<path d="M184.059 58.163C184.736 58.973 185.966 59.0971 186.755 58.4318C187.563 57.7511 187.653 56.513 186.976 55.703C186.298 54.893 185.068 54.7689 184.261 55.4496C183.472 56.1149 183.381 57.353 184.059 58.163Z" fill="white"/>
<path d="M201.789 92.2081C203.162 97.1072 207.549 99.5086 212.515 98.1052C217.55 96.6823 220.025 92.2664 218.626 87.2749L216.968 81.359L200.085 86.1305L201.789 92.2081ZM215.823 87.7678C216.801 91.2573 215.22 93.9738 211.64 94.9855C208.13 95.9776 205.382 94.5345 204.436 91.1606L203.639 88.3182L215.072 85.0872L215.823 87.7678Z" fill="white"/>
<path d="M214.128 117.255C219.459 116.782 222.857 112.963 222.418 107.967C221.979 102.97 217.945 99.8339 212.637 100.304C207.306 100.777 203.903 104.548 204.343 109.545C204.784 114.565 208.821 117.725 214.128 117.255ZM213.844 114.027C210.162 114.354 207.567 112.512 207.285 109.308C207.004 106.104 209.19 103.839 212.919 103.508C216.648 103.177 219.196 105.024 219.478 108.227C219.759 111.431 217.573 113.697 213.844 114.027Z" fill="white"/>
<path d="M218.768 129.053L217.844 134.105L203.376 131.438L202.823 134.46L217.292 137.127L216.368 142.179L219.153 142.692L221.553 129.566L218.768 129.053Z" fill="white"/>
<path d="M199.978 144.682L206.958 147.256L204.287 154.559L197.306 151.985L196.251 154.87L212.711 160.94L213.766 158.055L206.966 155.547L209.638 148.244L216.438 150.752L217.493 147.867L201.033 141.797L199.978 144.682Z" fill="white"/>
<path d="M189.341 166.544L191.792 167.961L195.685 161.174L199.716 163.505L196.229 169.584L198.577 170.942L202.063 164.862L205.97 167.121L202.077 173.908L204.529 175.325L209.95 165.874L194.762 157.092L189.341 166.544Z" fill="white"/>
<path d="M179.708 178.049L184.337 182.685L181.682 185.358L174.955 182.833L172.587 185.216L180.025 187.945C179.164 190.004 179.573 191.976 181.235 193.64C183.677 196.086 186.742 195.861 189.55 193.034L194.269 188.284L181.873 175.869L179.708 178.049ZM190.171 188.527L187.616 191.098C186.246 192.477 184.739 192.598 183.501 191.358C182.246 190.102 182.329 188.554 183.699 187.175L186.253 184.604L190.171 188.527Z" fill="white"/>
<path d="M169.183 187.498L170.35 191.637L164.995 195.413L161.513 192.905L158.865 194.772L174.098 205.498L176.668 203.686L171.791 185.658L169.183 187.498ZM172.708 200.076C172.846 200.566 173.031 201.082 173.165 201.399C172.919 201.132 172.479 200.796 172.1 200.505L167.206 197.025L171.09 194.287L172.708 200.076Z" fill="white"/>
<path d="M154.494 196.53L157.262 202.469L153.852 204.071L148.39 199.399L145.349 200.828L151.411 205.935C149.898 207.574 149.608 209.566 150.602 211.698C152.062 214.83 155.021 215.667 158.627 213.973L164.687 211.125L157.274 195.224L154.494 196.53ZM160.751 209.952L157.471 211.493C155.711 212.32 154.253 211.918 153.513 210.33C152.762 208.72 153.369 207.295 155.128 206.468L158.408 204.927L160.751 209.952Z" fill="white"/>
<path d="M132.279 204.31L133.035 207.04L140.571 204.935L141.814 209.422L135.064 211.307L135.788 213.921L142.538 212.036L143.742 216.384L136.206 218.488L136.962 221.218L147.457 218.287L142.774 201.38L132.279 204.31Z" fill="white"/>
<path d="M127.097 204.611C126.052 204.763 125.297 205.747 125.445 206.768C125.596 207.813 126.599 208.54 127.644 208.388C128.689 208.235 129.444 207.252 129.292 206.207C129.144 205.185 128.142 204.458 127.097 204.611Z" fill="white"/>
</svg>
