<svg width="54" height="52" viewBox="0 0 54 52" fill="none" xmlns="http://www.w3.org/2000/svg">
<path id="Vector" fill-rule="evenodd" clip-rule="evenodd" d="M43.967 18.274C43.7447 18.608 43.455 18.8226 43.1836 19.1123L43.1124 19.1883C43.1018 19.1989 43.0864 19.2143 43.0758 19.2249C43.0652 19.2355 43.0479 19.2499 43.0373 19.2605C41.5225 20.6695 40.1366 22.2113 38.6295 23.626L38.4043 23.8435C38.284 23.958 38.2436 23.9936 38.1454 24.1004L36.186 26.0493C35.7279 26.467 28.7601 33.3087 28.4117 33.8303C28.4945 34.1864 28.557 34.1113 28.736 34.3904L29.0738 34.937C29.2673 35.2104 29.6522 35.7224 29.7379 36.0429C30.0872 36.013 30.3028 35.6733 30.5463 35.451L30.7368 35.2729C30.7484 35.2624 30.7648 35.2479 30.7763 35.2383C31.5029 34.5983 32.1371 33.8428 32.8561 33.1893L39.3041 27.0309C39.5053 26.8442 39.6583 26.6739 39.8556 26.4766L43.2173 23.2035C43.8303 22.7146 44.3327 22.1035 44.9178 21.5867L45.1758 21.3287C45.2912 21.2094 45.196 21.2989 45.3259 21.1834C45.7272 20.8244 46.3248 20.4048 46.5125 19.8639C47.2468 17.7524 47.2439 18.4078 46.4317 17.43C46.1968 17.148 46.6001 17.6321 46.3653 17.3492L38.4303 9.21211C38.4245 9.20538 38.3456 9.12743 38.3196 9.10145L33.9205 4.58005C33.7607 4.42125 33.626 4.30193 33.4797 4.13639C33.3902 4.03534 33.3517 3.97955 33.2747 3.89871C33.1294 3.74569 33.1236 3.86307 33.0543 3.60322C32.7155 3.61092 32.7185 3.70041 32.6184 3.97855C32.4586 4.42029 31.9351 5.59926 31.9707 5.95631C32.0034 6.28064 34.9214 9.04659 35.3583 9.48255L35.9752 10.1187C35.9858 10.1302 36.0002 10.1466 36.0108 10.1572C36.0214 10.1678 36.0368 10.1831 36.0474 10.1937L36.9896 11.1687C37.0002 11.1793 37.0156 11.1947 37.0261 11.2052C37.0367 11.2158 37.0512 11.2322 37.0618 11.2428C37.2157 11.4083 37.2966 11.5065 37.4602 11.6547L38.7854 12.9838C39.716 13.9154 41.4878 15.5447 42.2472 16.4522C42.4214 16.6611 42.4541 16.7304 42.6552 16.9296L43.9641 18.274H43.967ZM8.1368 18.0527L8.75949 18.7572C9.57079 19.7273 10.5669 20.5434 11.4359 21.4625L12.0981 22.2007C12.1876 22.2863 12.254 22.3373 12.3309 22.4104L17.3537 27.5612C17.3547 27.5622 17.4269 27.6372 17.4615 27.6748L17.5318 27.7527C17.5414 27.7643 17.5558 27.7797 17.5664 27.7922L21.0387 31.3242C21.0455 31.3309 21.1389 31.431 21.1456 31.4387C21.4892 31.8237 21.954 32.5214 22.44 32.6513C22.6055 32.403 22.5641 32.4252 22.6527 32.1278C23.3841 29.6852 23.7152 30.5735 21.7942 28.6526L21.031 27.8673C21.0204 27.8567 21.0051 27.8403 20.9955 27.8307L20.6239 27.465C20.187 26.9491 19.6452 26.5295 19.1967 26.0166L19.1294 25.9367C19.0774 25.878 19.0985 25.8972 19.0235 25.8212L11.9903 18.7726C11.7323 18.531 11.4196 18.2567 11.2338 17.9805L11.5938 17.5292C12.151 16.9546 12.7178 16.3223 13.327 15.7968L14.069 15.0645C14.1711 14.9721 14.1932 14.9432 14.2894 14.8422L15.5329 13.5785C15.6339 13.4717 15.6618 13.4601 15.76 13.3639C15.8783 13.2484 15.8995 13.2167 16.0198 13.1079C16.0314 13.0973 16.0477 13.0829 16.0583 13.0732C16.0699 13.0626 16.0862 13.0482 16.0968 13.0386C16.1084 13.028 16.1248 13.0136 16.1353 13.003L21.7837 7.37101C22.7788 6.33161 26.3166 3.05561 26.7901 2.35017C26.6496 2.08551 25.6746 0.37918 25.3156 0.13858C24.6015 0.616893 21.1157 4.31348 20.3025 4.93037C19.7732 5.33266 18.7328 6.44137 18.2468 6.93027L15.6628 9.43345C15.6512 9.44307 15.6349 9.45749 15.6233 9.46808L11.639 13.2985C11.5716 13.3639 11.587 13.3514 11.5283 13.4091L11.1232 13.8153C11.0125 13.9317 11.102 13.8451 10.9769 13.9634L9.70455 15.1982C8.78257 16.1317 8.79222 15.8065 8.41015 17.2222C8.3476 17.4541 8.1955 17.8054 8.1368 18.0546V18.0527ZM0.616638 47.3222C0.616638 47.9333 0.645518 47.736 0.768705 48.2759L0.941918 48.7668C0.969828 48.8312 0.977518 48.8601 1.00446 48.9255C1.08338 49.1103 1.19311 49.296 1.33073 49.4837C2.07178 50.4856 2.65885 50.7753 3.79448 51.0755C4.36904 51.2276 4.5788 51.1795 5.07925 51.0486L5.8713 50.808C6.01759 50.7503 6.10229 50.7031 6.2197 50.6405C6.77405 51.1217 6.55751 51.0091 7.62096 51.0091C7.54012 50.6636 7.22062 50.5173 6.95692 50.1247L7.37651 49.5857C8.59876 47.9602 8.22246 45.6177 6.6807 44.3551L6.14658 44.0048C5.78568 43.7536 5.55854 43.7719 5.16877 43.6545C4.67987 43.5082 4.07262 43.5063 3.5818 43.6525C2.79937 43.8874 2.25176 44.1472 1.62716 44.7949C1.05453 45.3868 0.616638 46.4926 0.616638 47.3232V47.3222ZM20.6692 25.057C21.0378 25.0484 20.9204 24.9589 21.6047 24.7385C21.7279 24.6991 21.7519 24.6856 21.904 24.5961C22.3813 24.3122 22.4275 24.0831 22.6729 23.5952L22.9356 23.0476C23.1695 22.5827 23.6238 21.7859 23.9673 21.425C24.2926 21.0823 24.5111 20.9235 25.1646 20.9264C26.4638 20.9322 27.5167 21.1305 28.173 20.4703C28.4531 20.1883 28.8284 19.8774 28.9276 19.454C28.1259 19.07 28.1432 19.3683 27.3791 18.6436L29.0209 18.3684C29.9024 18.1172 29.9583 18.173 30.2547 17.611C30.1152 17.5186 29.378 17.1365 29.2221 17.0951V16.8738C29.6917 16.8343 30.7311 16.688 31.0015 16.2944L31.1353 16.0586C31.2421 15.8719 31.2209 16.0134 31.2864 15.767C31.0429 15.4032 30.8937 15.5187 30.6069 15.3406C30.3018 15.1511 30.4837 15.3301 30.4019 15.103C31.1872 14.7267 31.603 15.2723 32.1574 14.3523C32.2276 14.2348 32.2776 14.1608 32.3614 14.0405C32.5192 13.8143 32.6453 13.6863 32.8137 13.4601L34.1611 11.7855C34.3362 11.5825 34.522 11.5017 34.5297 11.1225C33.7559 11.3025 32.8647 11.8414 32.1458 12.2033L31.0939 12.8471C30.7099 13.1041 30.4164 13.3187 30.0478 13.5698L29.0854 14.3032C28.123 15.0876 27.1721 15.8633 26.2906 16.7429C25.9817 17.0509 25.7786 17.3222 25.4706 17.6177C25.46 17.6283 25.4436 17.6437 25.4321 17.6543L25.3599 17.7294C25.2973 17.7967 25.3195 17.7784 25.256 17.8477C25.1704 17.9411 25.128 17.9815 25.0366 18.071L24.2628 18.992C23.8143 19.4905 22.7864 20.9389 22.4246 21.5039C21.7971 22.4826 20.9377 23.906 20.6692 25.057ZM41.1645 43.7093V46.2164C40.7872 45.9642 40.5129 45.5456 39.9076 45.482C39.2637 45.4137 38.7989 45.4214 38.2676 45.6794C36.3736 46.5985 36.0782 49.7262 38.2253 50.8513C38.7787 51.141 39.1136 51.1564 39.6901 51.1564C39.8556 51.1564 40.5283 50.8811 40.9922 50.4673C41.1077 50.3634 40.996 50.4057 41.1645 50.3451C41.1645 51.0804 41.0201 51.0091 41.9758 51.0091C42.1452 51.0091 42.1971 50.9581 42.1971 50.7878V43.7103C41.9478 43.7055 41.9113 43.6487 41.6966 43.6612C41.5735 43.6679 41.4243 43.7103 41.1645 43.7103V43.7093ZM1.64736 47.2481C1.64736 47.3712 1.81575 48.2605 1.85521 48.3674C1.8581 48.376 1.92358 48.5165 1.94764 48.5685C2.47985 49.7378 3.40852 50.1969 4.67023 50.1969C5.07733 50.1969 5.163 50.0496 5.48155 49.9755C5.41611 49.6974 5.2987 49.6493 5.03019 49.3952C5.0196 49.3846 5.00325 49.3701 4.9917 49.3596C4.89931 49.272 4.8897 49.2672 4.805 49.1777L4.73475 49.1007C4.72513 49.0901 4.70972 49.0737 4.69913 49.0622C4.6847 49.0468 4.64233 49.0025 4.62789 48.9862C4.41713 48.7533 4.21118 48.5666 4.1544 48.3539H5.26022C5.32759 48.6051 5.99838 49.2383 6.21876 49.3855C6.78177 48.8966 6.87605 48.4992 6.97806 47.9333C7.09933 47.2635 7.19944 47.6224 7.00504 46.8304C6.80486 46.0162 6.83083 45.6524 5.79048 44.8748C5.17454 44.4157 4.5971 44.5196 3.8599 44.5196C3.6424 44.5196 3.20742 44.7574 3.02264 44.8623C2.40574 45.2155 1.90432 45.9228 1.78402 46.7187C1.75611 46.9016 1.6483 47.1393 1.6483 47.2471L1.64736 47.2481ZM22.7326 51.0082C23.9616 51.0082 23.6565 51.1294 24.1011 50.0901C24.2609 49.7157 24.4784 49.4347 24.5765 49.017H27.8208L28.7052 51.0072H29.6638C29.5608 50.5664 28.3597 48.0757 28.0623 47.3741C27.9189 47.0354 27.79 46.8005 27.637 46.4724L26.7891 44.6659C26.7188 44.5091 26.6774 44.3753 26.5985 44.1934C26.4109 43.768 26.4484 44.0452 26.4205 43.7074C26.1924 43.6881 26.281 43.7083 26.126 43.6333C25.9826 43.7699 25.9508 43.8133 25.8527 44.024C25.768 44.2059 25.741 44.308 25.6583 44.4937L22.7932 50.6963C22.7403 50.8571 22.7393 50.7406 22.7336 51.0063L22.7326 51.0082ZM30.6214 45.5523C30.6214 46.6206 30.4414 49.1816 30.8389 49.9794C31.1815 50.6665 31.4875 50.859 32.1304 51.0476C33.6568 51.4951 34.1832 50.3961 34.5287 50.271L34.6028 51.0082H35.5613V45.6996C35.5613 45.305 34.829 45.4994 34.6028 45.5523C34.6028 46.5754 34.8155 48.6532 34.2891 49.3673C33.9503 49.8263 33.4162 50.3441 32.7589 50.3441C32.4471 50.3441 32.7829 50.3528 32.4942 50.2402C32.167 50.1112 31.9322 50.0544 31.7965 49.758C31.4346 48.9727 31.5693 46.9882 31.5838 46.0643C31.5934 45.434 31.6425 45.4792 30.9899 45.4792C30.8735 45.4792 30.7099 45.5186 30.6214 45.5533V45.5523ZM9.3148 45.5523C9.3148 47.0806 8.85864 50.3759 10.5351 50.9677C10.6728 51.0158 10.7488 51.0091 10.898 51.0476C11.4485 51.1891 11.5476 51.242 12.2857 50.9562C13.2914 50.5655 13.0701 49.9024 13.2597 50.3047C13.5407 50.9033 12.7198 51.0082 14.2548 51.0082V45.5523C13.6822 45.4677 13.3165 45.3387 13.2886 45.9132C13.2433 46.8352 13.507 48.5454 13.1009 49.2633L12.7525 49.7262C12.4426 50.0554 11.9325 50.3432 11.4523 50.3432C11.1395 50.3432 11.4773 50.3508 11.1876 50.2392C10.5024 49.9736 10.2637 49.6281 10.2705 48.5762C10.2772 47.5686 10.2724 46.559 10.2724 45.5514C9.68919 45.5032 9.81233 45.4994 9.31381 45.5514L9.3148 45.5523ZM37.6989 48.2066C37.6989 48.6599 37.7306 49.0564 38.0068 49.4472L38.1387 49.6098C38.3783 49.8995 38.3379 49.8725 38.6641 50.0429L39.1838 50.2613C39.3628 50.348 39.1473 50.3451 39.3215 50.3451C40.2935 50.3451 41.1645 49.4212 41.1645 48.9448C41.1645 48.1402 41.3002 47.4386 40.767 46.8352C40.3666 46.3819 39.7747 46.2876 39.2358 46.3473C38.3639 46.4416 37.6998 47.2779 37.6998 48.2076L37.6989 48.2066ZM51.4121 50.3451C51.1628 50.3451 50.2957 50.0467 50.1581 49.4606C49.7481 49.4606 49.649 49.5088 49.3477 49.5347C49.3477 50.1565 49.5864 50.4057 49.9656 50.6867C50.1244 50.8041 50.3987 50.9408 50.5498 50.987C51.39 51.2478 52.0935 51.2122 52.8153 50.7175C53.462 50.2739 53.666 49.4741 53.3186 48.8072C53.2368 48.6503 53.1252 48.5358 52.9731 48.4164C52.5468 48.0825 52.0511 47.941 51.5699 47.7552C51.3669 47.6773 51.2157 47.6369 51.0377 47.5493C50.6787 47.3722 50.5267 47.1971 50.5267 46.66C50.7028 46.5956 50.7567 46.2914 51.4112 46.2914C52.5256 46.2914 52.0309 47.3077 53.2541 46.66C53.0722 46.2799 52.9847 45.9873 52.4948 45.7226C51.3284 45.0913 49.1427 45.6957 49.6201 47.2663C50.0936 48.8225 52.7912 48.4097 52.4784 49.6396C52.3601 50.1074 51.6469 50.346 51.4102 50.346L51.4121 50.3451ZM46.3249 44.8161V45.4802C45.8177 45.4802 45.6618 45.4263 45.6618 45.9219C45.6618 46.4474 45.9505 46.3646 46.3249 46.3646C46.3249 47.3068 46.1372 50.296 46.6607 50.8215C47.2795 51.4422 48.1515 51.0091 48.4633 51.0091C48.5143 50.399 48.7299 50.1988 48.1688 50.1988C48.1582 50.1988 47.3575 50.4846 47.3575 49.9775V46.3646C48.5384 46.3646 48.5374 46.4675 48.5374 45.7746C48.5374 45.3762 47.8204 45.4802 47.3575 45.4802C47.3575 44.3696 47.499 44.5216 46.6203 44.5216C46.448 44.5216 46.3258 44.6438 46.3258 44.8161H46.3249ZM20.8164 43.7103H20.5951V51.0091H21.5536V43.7103L21.0272 43.6843C20.8232 43.6834 21.1225 43.7103 20.8174 43.7103H20.8164ZM18.2363 51.0091C18.8647 51.0091 19.1207 51.0958 19.1207 50.7878V43.9307C19.1207 43.6227 18.8647 43.7093 18.2363 43.7093V51.0082V51.0091ZM43.5243 45.5533V51.0091C44.2441 51.0091 44.5569 51.1092 44.5569 50.7878V45.7005C44.5569 45.3252 43.761 45.4609 43.5243 45.5533ZM15.7292 45.8487V50.7878C15.7292 51.1025 16.0121 51.0091 16.6877 51.0091V45.5533C16.348 45.4744 16.2316 45.4792 15.8033 45.4792C15.7648 45.6447 15.7292 45.6486 15.7292 45.8478V45.8487ZM25.0193 48.1344H27.3781C27.3184 47.9092 27.329 48.0122 27.2453 47.8246C27.1769 47.6715 27.1452 47.5878 27.0942 47.4588L26.8401 46.9016C26.8324 46.8862 26.8218 46.8689 26.8141 46.8545C26.612 46.4589 26.4321 45.6852 26.1241 45.4802C25.9932 46.0441 25.1155 47.7177 25.0183 48.1344H25.0193ZM43.5243 43.7103V44.5216C44.7321 44.5216 44.5569 44.6842 44.5569 43.7103C43.8505 43.7103 44.6859 43.589 43.5243 43.7103Z" fill="white"/>
</svg>
